<svg width="100%" height="100%" viewBox="0 0 37 72" version="1.1" xmlns="http://www.w3.org/2000/svg" xmlns:xlink="http://www.w3.org/1999/xlink" xml:space="preserve" xmlns:serif="http://www.serif.com/" style="fill-rule:evenodd;clip-rule:evenodd;stroke-linejoin:round;stroke-miterlimit:2;">


	<path d="M36.134,13.982c-0.599,-0.65 -1.639,-0.705 -2.321,-0.125c-0.117,0.097 -1.315,1.147 -2.493,3.284c-1.178,2.134 -2.321,5.366 -2.317,9.733c-0,1.497 0.141,3.129 0.447,4.893c-1.453,-0.932 -2.882,-1.672 -4.273,-2.224c-1.911,-0.76 -3.76,-1.183 -5.509,-1.346l-0,-26.632c-0,-0.873 -0.737,-1.571 -1.643,-1.565c-0.909,0.007 -1.642,0.719 -1.642,1.589l-0,26.609c-1.684,0.151 -3.237,0.529 -4.632,1.028c-1.801,0.648 -3.333,1.495 -4.593,2.338c0.265,-1.629 0.382,-3.14 0.382,-4.535c0.004,-4.368 -1.14,-7.583 -2.317,-9.7c-1.178,-2.12 -2.376,-3.15 -2.493,-3.248c-0.682,-0.57 -1.722,-0.5 -2.321,0.159c-0.596,0.655 -0.534,1.643 0.141,2.217c0.01,0.01 0.94,0.82 1.86,2.536c0.919,1.719 1.842,4.337 1.845,8.059c0,2.364 -0.375,5.177 -1.388,8.483c-0.22,0.722 0.118,1.49 0.81,1.836c0.692,0.345 1.546,0.174 2.042,-0.415c0.034,-0.043 1.277,-1.474 3.402,-2.874c1.071,-0.709 2.365,-1.406 3.836,-1.925c1.053,-0.375 2.2,-0.654 3.429,-0.789l0,6.228c-5.785,0.928 -10.216,5.783 -10.216,11.579c-0,5.877 4.555,10.717 10.457,11.462l0,9.501c0,0.869 0.737,1.571 1.643,1.565c0.909,-0.007 1.642,-0.719 1.642,-1.589l0,-9.491c5.936,-0.8 10.533,-5.722 10.533,-11.623c0,-5.981 -4.72,-10.889 -10.77,-11.5l-0,-6.122c1.329,0.152 2.737,0.486 4.235,1.08c2.19,0.87 4.566,2.291 7.097,4.484c0.547,0.476 1.353,0.539 1.98,0.158c0.626,-0.382 0.912,-1.111 0.705,-1.787c-1.012,-3.292 -1.387,-6.099 -1.387,-8.463c0.003,-3.842 0.985,-6.523 1.935,-8.249c0.475,-0.863 0.94,-1.481 1.277,-1.877c0.169,-0.196 0.303,-0.336 0.39,-0.423c0.041,-0.043 0.072,-0.07 0.089,-0.086l0.014,-0.014c0.658,-0.58 0.723,-1.572 0.124,-2.219Zm-8.795,35.043c0,4.258 -3.212,7.832 -7.434,8.593l0,-7.673c0,-0.873 -0.737,-1.572 -1.642,-1.565c-0.909,0.006 -1.643,0.719 -1.643,1.589l0,7.659c-4.183,-0.73 -7.358,-4.238 -7.358,-8.472c-0,-4.784 4.056,-8.708 9.039,-8.744c4.982,-0.035 9.038,3.826 9.038,8.613Z" style="fill-rule:nonzero;"/>

</svg>