



<svg width="100%" height="100%" viewBox="0 0 6082 6272" version="1.1" xmlns="http://www.w3.org/2000/svg" xmlns:xlink="http://www.w3.org/1999/xlink" xml:space="preserve" xmlns:serif="http://www.serif.com/" style="fill-rule:evenodd;clip-rule:evenodd;stroke-linejoin:round;stroke-miterlimit:2;">

	<rect id="Homepage-final" serif:id="Homepage final" x="-1155.33" y="-791.164" width="10426.7" height="9204.1" style="fill:none;"/>


<g transform="matrix(1,0,0,1,-1689.38,-10693.5)">

	<g transform="matrix(1.03213,0,0,1,-134.315,0)"><text x="4180.87px" y="13130px" style="font-family:'CevicheOne-Regular', 'Ceviche One';font-size:300px;fill:#870000;">Hi!  I&apos;m Ned.</text>
	</g>

	<g transform="matrix(1.03213,0,0,1,-103.975,0)"><text x="3236.47px" y="13430px" style="font-family:'CevicheOne-Regular', 'Ceviche One';font-size:300px;fill:#870000;">I&apos;m a web designer who helps</text>
	</g>

	<g transform="matrix(1.03213,0,0,1,-95.1005,0)"><text x="2960.22px" y="13730px" style="font-family:'CevicheOne-Regular', 'Ceviche One';font-size:300px;fill:#870000;">cli<tspan x="3216.76px 3337.96px 3470.93px " y="13730px 13730px 13730px ">ent</tspan>s bring their projects to life.</text>
	</g>

	<g transform="matrix(1.03213,0,0,1,-87.4212,0)"><text x="2721.19px" y="14330px" style="font-family:'CevicheOne-Regular', 'Ceviche One';font-size:300px;fill:#870000;">Cli<tspan x="3003.52px " y="14330px ">c</tspan>k on one of the link<tspan x="5075.68px " y="14330px ">s</tspan> to get started!</text>
	</g>

</g>


<a class="big-screen-link" href="projects.html">
	<g transform="matrix(0.984196,-0.177085,5.23348e-17,0.977659,-43.9025,-581.325)"><text x="230.679px" y="2985.94px" style="font-family:'HammersmithOne-Regular', 'Hammersmith One';font-size:277.14px;fill:#cb0000;stroke:#000;stroke-width:16.26px;">Projects</text>
	</g>
</a>


<a class="big-screen-link" href="about-me.html">
	<g transform="matrix(0.984196,-0.177085,5.23348e-17,0.977659,-4.92963,-188.157)"><text x="2590.48px" y="1038.19px" style="font-family:'HammersmithOne-Regular', 'Hammersmith One';font-size:277.14px;fill:#cb0000;stroke:#000;stroke-width:16.26px;">About Me</text>
	</g>
</a>


<a class="big-screen-link" href="projects.html">
	<g transform="matrix(0.984196,-0.177085,1.57004e-16,0.977659,-44.7619,-523.808)"><text x="45.853px" y="5991.45px" style="font-family:'HammersmithOne-Regular', 'Hammersmith One';font-size:277.14px;fill:#cb0000;stroke:#000;stroke-width:16.26px;">Codepens</text>
	</g>
</a>

<a class="big-screen-link" href="projects.html">
	<g transform="matrix(0.984196,-0.177085,1.57004e-16,0.977659,34.4218,276.36)"><text x="5425.65px" y="2094.24px" style="font-family:'HammersmithOne-Regular', 'Hammersmith One';font-size:277.14px;fill:#cb0000;stroke:#000;stroke-width:16.26px;">Blog</text>
	</g>
</a>

<a class="big-screen-link" href="projects.html">
	<g transform="matrix(0.984196,-0.177085,1.57004e-16,0.977659,34.5812,345.288)"><text x="5269.81px" y="5099.53px" style="font-family:'HammersmithOne-Regular', 'Hammersmith One';font-size:277.14px;fill:#cb0000;stroke:#000;stroke-width:16.26px;">GitHub</text>
	</g>
</a>

<a class="big-screen-link" href="projects.html">
	<g transform="matrix(0.984196,-0.177085,1.57004e-16,0.977659,-5.00733,-56.9196)"><text x="2692.62px" y="6951.44px" style="font-family:'HammersmithOne-Regular', 'Hammersmith One';font-size:277.14px;fill:#cb0000;stroke:#000;stroke-width:16.26px;">Contact</text>
	</g>
</a>

</svg>