<?xml version="1.0" encoding="UTF-8" standalone="no"?><!DOCTYPE svg PUBLIC "-//W3C//DTD SVG 1.1//EN" "http://www.w3.org/Graphics/SVG/1.1/DTD/svg11.dtd"><svg width="100%" height="100%" viewBox="0 0 1889 721" version="1.1" xmlns="http://www.w3.org/2000/svg" xmlns:xlink="http://www.w3.org/1999/xlink" xml:space="preserve" xmlns:serif="http://www.serif.com/" style="fill-rule:evenodd;clip-rule:evenodd;stroke-linejoin:round;stroke-miterlimit:2;"><rect id="Artboard2" x="-3746.46" y="-705.757" width="6887.45" height="1896.28" style="fill:none;"/><g><path d="M127.241,636.706c5.308,-12.91 11.713,-27.574 19.215,-43.99c16.486,-36.251 31.276,-65.247 44.368,-86.99l24.729,14.236c-13.577,24.416 -26.588,50.023 -39.034,76.821c15.032,-14.17 32.327,-28.18 51.884,-42.029l29.336,17.774c-5.334,23.908 -14.708,46.277 -28.124,67.107c14.827,-7.698 31.489,-17.834 49.991,-30.409c3.029,-10.595 7.539,-20.983 13.53,-31.163c8.728,-14.333 18.628,-26.209 29.7,-35.629c11.072,-9.419 21.699,-16.658 31.882,-21.716l40.973,26.599c-4.041,17.534 -11.718,31.113 -23.032,40.738c-11.314,9.624 -24.811,15.841 -40.489,18.652c-7.596,1.361 -13.577,1.867 -17.941,1.518c-2.586,6.767 -4.202,14.896 -4.849,24.387c27.801,-6.6 54.632,-17.631 80.493,-33.096c8.728,-5.12 17.132,-10.829 25.214,-17.127l5.091,23.575c-15.031,12.23 -32.811,23.822 -53.338,34.775c-21.82,11.669 -42.428,19.727 -61.824,24.173l-30.063,-22.493c-0,-0.584 0.004,-1.168 0.013,-1.752c-4.54,3.276 -9.716,6.888 -15.53,10.837c-23.275,15.647 -39.357,25.722 -48.247,30.225l-30.063,-15.947c9.698,-13.375 17.82,-26.347 24.366,-38.916c6.546,-12.568 10.789,-23.309 12.728,-32.223c-21.173,14.301 -35.114,24.235 -41.822,29.801c-6.707,5.566 -12.728,10.686 -18.062,15.36c-7.92,20.977 -13.981,39.196 -18.184,54.658l-28.851,-13.497c0.473,-1.705 0.997,-3.49 1.571,-5.359c-8.191,5.686 -16.877,11.117 -26.058,16.294c-18.587,10.443 -35.074,17.439 -49.459,20.987l-30.063,-22.493c9.536,-33.389 25.78,-69.677 48.731,-108.865c7.112,-12.266 14.709,-24.214 22.79,-35.845l21.578,16.013c-6.303,9.858 -12.122,19.629 -17.456,29.313c15.032,-4.311 26.103,-8.073 33.215,-11.288l5.577,25.185c-14.224,6.106 -32.327,11.451 -54.309,16.038c-9.859,21.163 -17.213,40.099 -22.062,56.808c13.092,-4.61 27.073,-10.389 41.943,-17.337c13.249,-6.191 26.563,-14.094 39.942,-23.71Zm1045.39,-187.057c3.031,-10.776 7.589,-21.333 13.676,-31.676c8.728,-14.333 18.628,-26.21 29.7,-35.629c11.071,-9.42 21.699,-16.658 31.881,-21.716l40.974,26.598c-4.041,17.534 -11.718,31.114 -23.033,40.738c-11.314,9.625 -24.81,15.842 -40.488,18.652c-7.597,1.362 -13.577,1.868 -17.941,1.519c-2.586,6.767 -4.203,14.896 -4.849,24.386c27.8,-6.599 54.631,-17.631 80.492,-33.095c8.728,-5.121 17.133,-10.829 25.215,-17.127l5.091,23.575c-15.032,12.23 -32.811,23.822 -53.338,34.774c-21.82,11.67 -42.428,19.727 -61.824,24.174l-30.064,-22.493c0,-0.471 0.003,-0.941 0.009,-1.413c-12.261,9.018 -26.729,18.546 -43.407,28.587c-7.758,4.623 -15.193,8.784 -22.305,12.484l-25.699,-21.094c10.506,-25.966 21.739,-48.749 33.7,-68.349c-11.314,2.998 -21.335,5.441 -30.063,7.328c-2.586,5.313 -9.537,18.681 -20.851,40.105l-17.941,14.61l-0.276,-0.113l0.034,0.157c-10.021,9.069 -25.78,20.864 -47.277,35.385c-8.728,5.929 -16.648,10.823 -23.76,14.684l-21.335,-19.936c-10.183,11.523 -23.275,22.113 -39.277,31.77l-31.563,-21.635c-10.093,7.423 -20.987,14.432 -32.685,21.028c-18.588,10.443 -35.074,17.439 -49.459,20.987l-28.036,-20.976c-7.832,5.855 -17.075,12.381 -27.727,19.576c-8.728,5.929 -16.648,10.823 -23.76,14.684l-21.335,-19.936c-10.183,11.523 -23.275,22.113 -39.276,31.77l-32.246,-22.102c0.207,-1.707 0.442,-3.416 0.706,-5.131c-23.945,11.289 -49.799,22.197 -77.561,32.726l-14.79,-6.805c-11.799,30.885 -21.497,61.232 -29.093,91.041l-29.094,-15.636c7.758,-26.766 18.749,-56.618 32.973,-89.554c-8.082,-6.633 -15.84,-13.647 -23.275,-21.043l15.274,-21.406l10.183,8.358c2.909,2.388 5.738,4.548 8.486,6.48c7.758,-28.545 19.476,-55.617 35.154,-81.217c14.062,-23.048 29.579,-41.992 46.55,-56.833l40.974,21.992c-4.203,23.866 -11.84,46.571 -22.912,68.112c-11.071,21.542 -25.093,40.703 -42.064,57.484c19.157,-6.676 37.977,-14.433 56.463,-23.272c2.489,-7.414 5.488,-14.882 8.997,-22.404c9.052,-19.401 20.689,-39.994 34.913,-61.777l24.972,14.677c-22.629,34.604 -36.933,64.968 -42.913,91.093c0.161,-0.029 1.656,-0.741 4.485,-2.137c2.829,-1.396 6.506,-3.793 11.031,-7.19c11.476,-8.522 22.063,-19.714 31.761,-33.574c11.314,-24.98 22.143,-45.67 32.488,-62.071l25.941,15.474c-15.193,25.028 -27.558,49.307 -37.094,72.836l-0.97,0.659c10.345,-4.602 21.618,-10.825 33.822,-18.669c8.295,-5.333 14.556,-9.442 18.781,-12.327c9.327,-23.474 21.613,-48.227 36.86,-74.26c7.112,-12.265 14.709,-24.214 22.79,-35.845l21.578,16.013c-6.304,9.858 -12.122,19.629 -17.456,29.313c15.031,-4.31 26.103,-8.073 33.215,-11.287l5.576,25.185c-14.223,6.105 -32.326,11.451 -54.308,16.037c-9.859,21.163 -17.214,40.099 -22.063,56.808c13.093,-4.609 27.074,-10.388 41.944,-17.337c12.911,-6.033 25.884,-13.692 38.917,-22.976c2.597,-7.983 5.788,-16.031 9.572,-24.143c9.051,-19.401 20.689,-39.994 34.912,-61.777l24.972,14.677c-22.628,34.604 -36.932,64.968 -42.913,91.093c0.162,-0.029 1.657,-0.741 4.486,-2.137c2.828,-1.396 6.505,-3.793 11.031,-7.19c11.476,-8.522 22.063,-19.714 31.76,-33.574c11.315,-24.98 22.144,-45.67 32.488,-62.071l25.942,15.474c-15.193,25.028 -27.558,49.307 -37.094,72.836l-0.97,0.659c10.344,-4.602 21.618,-10.825 33.821,-18.669c3.422,-2.2 6.498,-4.191 9.226,-5.974c11.486,-14.574 19.362,-24.89 23.626,-30.948c4.687,-6.659 8.728,-12.393 12.122,-17.204c-4.687,-4.332 -9.213,-9.421 -13.577,-15.265c7.758,-11.897 17.456,-24.545 29.094,-37.945l22.547,13.415c-1.778,7.753 -3.313,13.443 -4.606,17.069c20.85,-6 35.882,-10.957 45.095,-14.871c9.213,-3.914 17.214,-7.369 24.002,-10.363l6.789,27.634c-6.627,3.127 -13.577,6.07 -20.851,8.829c-11.152,19.616 -20.446,39.95 -27.881,61.002c23.431,-12.245 41.5,-23.037 54.209,-32.375Zm-848.222,134.931c9.375,-1.68 17.537,-5.73 24.487,-12.147c8.082,-7.591 12.122,-16.882 12.122,-27.873c-16.324,11.816 -28.528,25.156 -36.609,40.02Zm216.02,-12.05c16.486,-16.855 31.518,-37.571 45.095,-62.148c13.092,-24.005 21.012,-44.336 23.76,-60.991c-34.104,40.216 -57.056,81.263 -68.855,123.139Zm766.616,-95.948c0,-6.465 2.182,-12.271 6.546,-17.417c4.364,-5.147 9.698,-8.285 16.002,-9.414c6.304,-1.13 11.637,0.096 16.001,3.678c4.364,3.581 6.546,8.524 6.546,14.828c0,9.698 -4.606,17.473 -13.819,23.327c-9.051,5.502 -17.295,5.363 -24.73,-0.416c-4.364,-3.421 -6.546,-8.282 -6.546,-14.586Zm-92.078,-277.579c0.257,-0.857 0.522,-1.714 0.797,-2.572c4.122,-12.861 10.143,-24.81 18.062,-35.847c7.92,-11.036 17.618,-20.735 29.094,-29.096c11.476,-8.36 24.568,-14.505 39.276,-18.434l13.577,20.356c5.011,-8.171 9.698,-15.234 14.062,-21.189l23.518,16.151c-9.375,14.126 -19.396,31.681 -30.064,52.665c-3.232,6.398 -6.061,12.562 -8.485,18.492c24.729,-11.544 43.155,-21.797 55.278,-30.758l5.091,23.575c-13.254,12.235 -27.639,23.622 -43.156,34.162c-5.657,3.923 -10.586,6.988 -14.789,9.196l-10.425,-9.768c-6.304,29.253 -15.355,52.777 -27.154,70.57c-4.041,6.219 -8.486,12.35 -13.335,18.391c-18.264,2.789 -37.741,3.451 -58.429,1.987c-6.627,-0.428 -12.769,-1.105 -18.426,-2.031l-1.212,-39.786c10.021,-10.848 21.658,-20.773 34.912,-29.775l-13.577,-10.416c-0,-1.317 0.022,-2.634 0.066,-3.953c-4.435,3.193 -9.467,6.702 -15.098,10.526c-23.275,15.648 -39.357,25.723 -48.247,30.225l-30.063,-15.946c9.698,-13.376 17.82,-26.348 24.366,-38.916c6.546,-12.569 10.789,-23.31 12.728,-32.224c-20.689,13.406 -40.408,28.255 -59.157,44.546c-7.435,19.112 -13.738,37.536 -18.911,55.273l-28.851,-13.497c0.529,-1.883 1.086,-3.793 1.672,-5.73c-9.915,7.05 -20.735,14.193 -32.463,21.431c-7.435,4.566 -14.708,8.698 -21.82,12.397l-27.881,-20.702l0.186,-0.54c-16.77,9.724 -36.794,19.543 -60.07,29.457c-11.315,4.937 -22.71,9.485 -34.185,13.643l-22.548,-16.567c-13.9,33.848 -24.245,63.341 -31.033,88.48l-27.639,-13.715c7.934,-25.29 17.143,-50.859 27.627,-76.712c-9.17,4.983 -17.006,8.891 -23.505,11.725l-11.638,-11.249c-15.517,20.723 -35.963,35.701 -61.339,44.937l-34.427,-22.68l-0,-0.222c-20.068,15.212 -42.211,27.579 -66.431,37.1c-10.021,3.898 -19.961,6.973 -29.821,9.225l-28.954,-21.663c-10.035,6.763 -20.993,13.315 -32.87,19.652c-21.82,11.669 -42.428,19.727 -61.824,24.173l-30.063,-22.493c0,-1.102 0.015,-2.202 0.045,-3.297c-11.121,6.739 -24.067,13.55 -38.836,20.433c-5.981,2.688 -11.072,4.813 -15.275,6.374l-14.789,-14.805c-15.678,16.71 -31.195,29.997 -46.55,39.861l-32.245,-22.101l0.07,-0.412c-10.801,7.453 -22.704,14.649 -35.71,21.589c-21.82,11.669 -42.428,19.727 -61.824,24.173l-30.063,-22.493l0.001,-0.487c-10.083,7.862 -22.852,16.939 -38.307,27.234c-6.951,4.478 -12.527,7.821 -16.729,10.029l-18.669,-17.504c-12.769,12.31 -27.477,22.219 -44.125,29.729l-30.063,-22.493c-0,-12.769 1.939,-25.643 5.818,-38.622c3.879,-12.979 9.617,-25.08 17.214,-36.301c7.597,-11.221 17.012,-21.111 28.245,-29.671c11.233,-8.559 24.204,-14.803 38.913,-18.733l13.334,17.976c12.608,-26.666 25.861,-50.7 39.762,-72.103l23.517,16.151c-16.002,23.233 -32.569,55.135 -49.702,95.704c-5.172,12.241 -9.778,24.138 -13.819,35.692c15.729,-7.523 32.127,-17.373 49.193,-29.547c3.03,-10.682 7.564,-21.151 13.601,-31.41c8.728,-14.333 18.628,-26.209 29.699,-35.629c11.072,-9.419 21.699,-16.658 31.882,-21.716l40.974,26.599c-4.041,17.534 -11.719,31.113 -23.033,40.738c-11.314,9.624 -24.81,15.842 -40.488,18.652c-7.597,1.361 -13.577,1.868 -17.942,1.518c-2.586,6.768 -4.202,14.896 -4.848,24.387c27.8,-6.599 54.631,-17.631 80.492,-33.096c6.937,-4.069 13.67,-8.511 20.197,-13.323c1.332,-4.473 2.762,-8.768 4.29,-12.886c7.92,-21.947 18.022,-45.174 30.306,-69.68l26.669,13.403c-9.375,18.328 -16.002,32.931 -19.881,43.81c-5.818,16.397 -10.021,30.728 -12.607,42.99c15.193,-9.673 34.67,-33.853 58.43,-72.539c7.111,-11.457 13.819,-23.246 20.123,-35.367l27.881,13.186c-14.223,26.147 -29.093,49.34 -44.61,69.577c9.536,-2.194 20.608,-5.876 33.215,-11.045c9.198,-3.771 16.289,-6.777 21.271,-9.019c3.023,-10.154 7.408,-20.114 13.157,-29.882c8.728,-14.333 18.628,-26.209 29.699,-35.629c11.072,-9.419 21.699,-16.658 31.882,-21.716l40.974,26.599c-4.041,17.534 -11.719,31.113 -23.033,40.738c-11.314,9.624 -24.81,15.842 -40.488,18.652c-7.597,1.361 -13.577,1.867 -17.942,1.518c-2.586,6.767 -4.202,14.896 -4.848,24.387c27.8,-6.599 54.631,-17.631 80.492,-33.096c6.76,-3.966 13.326,-8.284 19.699,-12.957c6.763,-17.81 15.472,-37.161 26.123,-58.05c11.799,-23.127 25.053,-44.171 39.762,-63.132c7.435,-9.575 15.112,-17.902 23.032,-24.978l40.973,21.507c-5.495,45.11 -25.537,79.816 -60.126,104.119c-11.153,7.817 -23.598,14.655 -37.337,20.511c-3.879,10.232 -6.869,18.93 -8.971,26.095c20.043,-6.34 35.64,-12.206 46.793,-17.6c19.175,-9.118 35.542,-18.982 49.102,-29.591c1.379,-5.458 3.114,-10.961 5.206,-16.51c7.758,-20.463 20.527,-38.187 38.306,-53.173c12.284,-10.445 25.619,-17.926 40.004,-22.444l38.549,26.063c-2.748,17.949 -7.435,33.982 -14.062,48.101c10.304,-2.42 21.811,-5.815 34.521,-10.186c12.095,-27.04 25.561,-54.389 40.395,-82.037l24.487,13.552l-12.85,26.305c10.668,-11.448 24.811,-23.681 42.429,-36.698l29.336,17.774c-1.293,13.162 -3.395,24.691 -6.304,34.587c-2.909,9.897 -7.677,18.833 -14.304,26.809c15.541,-7.822 30.378,-16.222 44.511,-25.202c7.284,-15.284 16.287,-32.329 27.011,-51.138c6.141,-10.799 12.122,-20.357 17.941,-28.673l24.002,13.396c-11.799,18.278 -23.275,39.812 -34.428,64.601c-3.232,7.368 -5.98,14.164 -8.243,20.388c15.217,-7.352 33.257,-18.24 54.117,-32.661c3.068,-7.449 6.446,-15.191 10.132,-23.222c10.506,-22.734 21.496,-42.322 32.972,-58.764l24.487,13.31c-5.657,8.611 -11.071,18.148 -16.244,28.611c16.164,-15.666 32.892,-29.655 50.187,-41.968l29.336,17.774c-5.334,23.908 -14.708,46.277 -28.124,67.107c14.893,-7.733 31.638,-17.924 50.238,-30.577Zm-1166.7,234.569c17.295,-7.787 33.054,-22.087 47.277,-42.901c4.203,-9.966 7.354,-22.007 9.456,-36.122c-16.648,4.6 -30.306,14.402 -40.974,29.407c-10.506,14.813 -15.759,31.352 -15.759,49.616Zm1169.32,-9.082c9.374,-1.681 17.537,-5.73 24.487,-12.148c8.081,-7.59 12.122,-16.881 12.122,-27.872c-16.325,11.816 -28.528,25.156 -36.609,40.02Zm-1005.91,-62.15c9.375,-1.68 17.537,-5.729 24.487,-12.147c8.082,-7.591 12.123,-16.881 12.123,-27.872c-16.325,11.815 -28.528,25.155 -36.61,40.019Zm508.168,-47.2c18.426,-7.505 33.781,-21.652 46.065,-42.442c5.173,-8.847 8.89,-17.11 11.153,-24.788c2.263,-7.679 3.475,-13.715 3.637,-18.108c-13.093,4.124 -25.538,13.305 -37.337,27.542c-14.709,17.668 -22.548,36.933 -23.518,57.796Zm-232.991,-2.122c9.375,-1.68 17.537,-5.729 24.487,-12.147c8.082,-7.591 12.123,-16.882 12.123,-27.872c-16.325,11.815 -28.528,25.155 -36.61,40.019Zm365.367,-15.786c17.457,-5.877 30.225,-11.155 38.307,-15.837c11.637,-7.581 20.85,-20.87 27.639,-39.866c2.263,-5.901 3.798,-11.833 4.606,-17.797c-16.486,11.683 -31.599,23.767 -45.337,36.25c-4.687,4.235 -9.698,8.85 -15.032,13.847l-10.183,23.403Zm360.519,-8.856c15.839,0.879 28.123,0.536 36.852,-1.029c10.021,-10.362 18.264,-25.821 24.729,-46.375c-25.376,14.731 -45.903,30.532 -61.581,47.404Zm-594.237,-6.228c14.708,-9.586 26.426,-21.708 35.155,-36.364c8.728,-14.657 14.546,-31.055 17.456,-49.194c-12.769,13.765 -26.427,34.477 -40.974,62.137c-4.202,7.865 -8.081,15.672 -11.637,23.421Zm964.075,-122.522c-24.861,11.843 -51.808,23.27 -80.842,34.281l-14.789,-6.805c-11.799,30.885 -21.497,61.232 -29.094,91.041l-29.093,-15.636c7.758,-26.767 18.749,-56.618 32.972,-89.554c-8.081,-6.633 -15.839,-13.647 -23.275,-21.043l15.275,-21.406l10.182,8.358c2.91,2.388 5.738,4.548 8.486,6.48c7.758,-28.545 19.477,-55.617 35.155,-81.218c14.062,-23.047 29.578,-41.991 46.55,-56.832l40.973,21.992c-4.202,23.866 -11.839,46.57 -22.911,68.112c-11.072,21.542 -25.093,40.703 -42.065,57.484c19.31,-6.729 38.279,-14.557 56.909,-23.486c1.285,-4.787 2.842,-9.608 4.673,-14.464c7.758,-20.463 20.527,-38.187 38.306,-53.173c12.284,-10.445 25.619,-17.926 40.004,-22.444l38.549,26.063c-2.748,17.949 -7.435,33.982 -14.062,48.101c9.189,-2.158 19.335,-5.092 30.441,-8.802c8.755,-11.194 14.932,-19.348 18.533,-24.464c4.688,-6.658 8.729,-12.393 12.123,-17.204c-4.688,-4.332 -9.213,-9.42 -13.577,-15.265c7.758,-11.897 17.456,-24.545 29.093,-37.945l22.548,13.415c-1.778,7.753 -3.314,13.443 -4.607,17.069c20.851,-6 35.883,-10.957 45.095,-14.871c9.213,-3.914 17.214,-7.369 24.003,-10.363l6.788,27.634c-6.627,3.128 -13.577,6.07 -20.85,8.829c-11.153,19.616 -20.447,39.951 -27.882,61.002c26.831,-14.022 46.631,-26.137 59.4,-36.346l5.334,23.531c-14.87,12.364 -34.347,25.795 -58.43,40.294c-7.758,4.623 -15.193,8.785 -22.305,12.484l-25.699,-21.093c10.506,-25.966 21.739,-48.75 33.7,-68.349c-11.314,2.997 -21.336,5.44 -30.064,7.328c-2.586,5.312 -9.536,18.68 -20.85,40.104l-17.941,14.61c-21.012,12.495 -37.499,21.349 -49.459,26.564l-11.638,-11.249c-15.516,20.723 -35.963,35.701 -61.339,44.937l-34.427,-22.68c-0,-1.67 0.035,-3.344 0.107,-5.021Zm-339.048,63.105c9.537,-4.457 16.81,-8.59 21.821,-12.397c9.374,-7.499 17.456,-16.302 24.244,-26.408c4.849,-11.537 8.405,-24.539 10.668,-39.007c-16.487,4.572 -30.144,14.131 -40.974,28.68c-10.506,14.328 -15.759,30.706 -15.759,49.132Zm251.902,-63.819c16.487,-16.855 31.519,-37.571 45.096,-62.148c13.092,-24.006 21.012,-44.336 23.759,-60.992c-34.104,40.217 -57.055,81.264 -68.855,123.14Zm119.527,-4.21c18.426,-7.505 33.781,-21.652 46.065,-42.442c5.172,-8.847 8.889,-17.109 11.152,-24.788c2.263,-7.679 3.475,-13.715 3.637,-18.108c-13.092,4.124 -25.538,13.305 -37.337,27.542c-14.708,17.668 -22.548,36.933 -23.517,57.796Zm-570.477,-8.547c-3.718,-3.213 -5.577,-7.567 -5.577,-13.063c0,-5.495 1.9,-10.482 5.698,-14.961c3.798,-4.48 8.445,-7.212 13.941,-8.197c5.495,-0.985 10.142,0.082 13.94,3.199c3.799,3.118 5.698,7.424 5.698,12.92c-0,5.495 -1.899,10.482 -5.698,14.961c-3.798,4.48 -8.445,7.212 -13.94,8.197c-5.496,0.985 -10.183,-0.034 -14.062,-3.056Z" style="fill:#ffde00;fill-rule:nonzero;stroke:#000;stroke-width:14.58px;"/></g></svg>