<svg xmlns="http://www.w3.org/2000/svg" viewBox="0 0 578.79 497.67"><defs><style>.cls-1{fill:#202020;}</style></defs><g id="Layer_2" data-name="Layer 2"><g id="Layer_1-2" data-name="Layer 1"><path d="M76.24,363a10.51,10.51,0,0,0-2.1,2.16c-16.73,23.16-18.5,55.49-5.34,80.7,5.52,10.58,14.18,19.9,25,25.09a128.59,128.59,0,0,0,18,6.88c15.34,4.71,31.23,7.65,47.07,10.07,20.73,3.17,41.6,5.34,62.52,6.87a1101,1101,0,0,0,139.05,1.37c22.46-1.2,44.87-3.2,67.15-6.3,18.46-2.57,36.92-5.9,54.84-11.12,13.61-4,27.74-8.93,39.39-17.21a63.77,63.77,0,0,0,20.76-24.38c7-14.61,8.49-30.67,5.89-46.54a94.58,94.58,0,0,0-7.23-23.09,4.9,4.9,0,0,0-.38-.62l-13.79,8.24c.07.18.12.37.2.55,5.41,12.24,7.81,27.18,5.49,39.78-2.19,11.89-7.34,22-16.52,30-.49.43-1,.83-1.5,1.26-1.19.84-2.37,1.69-3.6,2.48a84.39,84.39,0,0,1-7.86,4.45c-1.36.69-2.73,1.34-4.12,2l-1.92.85.28-.12-.33.14-.89.36-.42.18q-5,2-10.1,3.68c-16.44,5.45-33.51,8.95-50.58,11.71q-3.42.55-6.84,1.06l-3.8.54-1.92.27-.6.08q-7.62,1-15.26,1.85-16,1.76-32.07,2.84a1091.2,1091.2,0,0,1-135.21.65c-20.67-1.14-41.31-2.85-61.84-5.43-1-.12-2-.25-3.05-.39l-1.82-.24h-.07l-.18,0c-2.35-.33-4.71-.66-7.06-1q-6.48-1-12.93-2.08c-7.76-1.35-15.5-2.88-23.16-4.73a196.64,196.64,0,0,1-19.33-5.59q-1.92-.68-3.81-1.41l-1.18-.47a8.71,8.71,0,0,0-1-.43c-1.06-.48-2.13-1-3.17-1.5a42.15,42.15,0,0,1-3.69-2.1c-.6-.38-1.17-.8-1.76-1.19l-.36-.22-.27-.24a52.49,52.49,0,0,1-6-5.79,37,37,0,0,1-4.58-6.53c-.64-1.1-1.25-2.21-1.82-3.35-.35-.68-.69-1.38-1-2.08,0-.05-.39-.93-.55-1.28A70.16,70.16,0,0,1,78.08,425a55.77,55.77,0,0,1-1.81-17.26A56.56,56.56,0,0,1,79.39,390a43,43,0,0,1,3.15-7.65,67.51,67.51,0,0,1,5.58-9.07c0-.05,0-.11.09-.17Z"/><path d="M521.06,325a22.45,22.45,0,0,0-16.16,10.68c-18.95,31.1-36.47,11.5-62.74,7.14-11.37-1.89-23.5-1.27-33.65,4.2-37.45,20.18-59,13.31-78.95,4.13-16-7.35-25.21,1.81-37.64,6-47.16,16-70.68-1.12-84.75-12.67-13.21-10.83-23.34-10.06-38-6.51-21.27,5.14-32.39,1.08-50.4-11.28a39.69,39.69,0,0,0-28.38-6.6A167.81,167.81,0,0,0,73,323.63C70,335,71.49,353,76.24,363l12,10.16c89.27,45.69,350.5,42.11,438.85,2l13.79-8.24c7.15-8.85,9.34-33.52,4.59-46C545.44,320.88,531.88,323.52,521.06,325Z"/><path d="M73,323.63a25.27,25.27,0,0,1-3-.39,24.78,24.78,0,0,1-8.84-3.73C55.94,316,52.44,311.26,52.1,305a35.5,35.5,0,0,1,3-15.81c3.64-8.5,10.72-16,19.81-18.13a12.27,12.27,0,0,0,4,4.42c1.56,1,3.21,1.89,4.91,2.81-2.06,1.23-5.08,2.3-6.24,2.95-1.48.82-3,1.52-4.44,2.46a20.32,20.32,0,0,0-9,15.93c-.21,5.65,2.1,11.74,7.9,13.62,4.09,1.33,8.25-.15,12.25-1.9,5.46-2.37,10.66-5,17-5.38,11.8-.74,19.8,6.24,26.43,12.82,5.56,5.51,13.25,11.2,22.58,11.38,10.61.21,19.33-6.2,28.91-8.92,5.33-1.52,11.43-2,16.84-.48,5.7,1.62,10.39,5,14.55,8.35,4,3.23,7.61,6.74,11.9,9.74a69.33,69.33,0,0,0,13.1,6.89c9.15,3.79,20.34,6.5,30.67,4.44,12-2.39,21.91-9,33.17-12.81a49.42,49.42,0,0,1,17.46-3,46.35,46.35,0,0,1,18,4.71c9.87,4.55,20.64,8,32.31,7.49,20.05-.91,35.56-13.41,54.63-17.11a58.84,58.84,0,0,1,31.14,2.48c5.42,1.93,10.28,4.64,15.46,6.9,3.89,1.71,8.56,3.55,13.12,2.61s7.42-4.06,9.7-7c3.06-3.92,5.42-8.12,9-11.78a24,24,0,0,1,14.37-7.47c5.07-.66,10.14.25,15.2-.27A25.85,25.85,0,0,0,541,311.05c2.82-1.91,4.76-4.4,5-7.05.86-7.63-15.34-18.59-23.18-21.83a111.9,111.9,0,0,0,11.81-5.94c5.81,3.3,13.22,8.22,16,10.78,7.65,7.1,10.94,16.82,5.2,25.38a26,26,0,0,1-10.41,8.49s-13.56,2.64-24.38,4.07a22.45,22.45,0,0,0-16.16,10.68c-18.95,31.1-36.47,11.5-62.74,7.14-11.37-1.89-23.5-1.27-33.65,4.2-37.45,20.18-59,13.31-78.95,4.13-16-7.35-25.21,1.81-37.64,6-47.16,16-70.68-1.12-84.75-12.67-13.21-10.83-23.34-10.06-38-6.51-21.27,5.14-32.39,1.08-50.4-11.28a39.69,39.69,0,0,0-28.38-6.6A167.81,167.81,0,0,0,73,323.63Z"/><path d="M518.93,283.85l0,0c-5.63,2.28-11.83,4.42-18.54,6.44a51.19,51.19,0,0,0,4.55,2.37,55,55,0,0,0,5.46,2.16,34.89,34.89,0,0,0,7.06,1.51c2.43.27,5-.79,6.13-2.44s.66-3.66-.77-5.49S519.74,285,518.93,283.85Z"/><path d="M496.12,305.16l-12.42-6.38a24.59,24.59,0,0,1-4.41-3q-8.67,2-18.06,3.76c.51.34,1,.65,1.51.95a50.91,50.91,0,0,0,5.6,2.77,50.22,50.22,0,0,0,11.17,3.25,104.41,104.41,0,0,0,10.43,1.22c1.72.11,3.45.17,5.18.11,1.09-.05,3.9.06,2.37-1.75A4.26,4.26,0,0,0,496.12,305.16Z"/><path class="cls-1" d="M232.48,326.41c.61.43,1.29,1.19,2.58,2.27a23.69,23.69,0,0,0,7.33,4A68.43,68.43,0,0,0,257.1,336a61.3,61.3,0,0,0,29.62-3.92c1.63-.65,2.94-1.23,3.82-1.67l1.38-.66-1.22,1c-.79.65-2,1.52-3.47,2.55a59,59,0,0,1-12.74,6.49,56.24,56.24,0,0,1-17.61,3.34A48.33,48.33,0,0,1,240,340.69c-4.94-1.76-8.23-4.66-9.82-7.38s-1.61-4.81-1.38-5.77A2.2,2.2,0,0,1,232.48,326.41Z"/><path class="cls-1" d="M382.89,334.1l4.1-2.59c12.81-8.11,28.4-12,43.47-12.46a71.83,71.83,0,0,1,11.82.34c2.87.41,4.79.77,4.79.77s-1.74-.83-4.49-2a61.33,61.33,0,0,0-10.66-3.11,58.91,58.91,0,0,0-18.29-.81,4,4,0,0,0-1.34.47,5.24,5.24,0,0,0-1.4.16c-1.25.21-9.57,3.48-16.2,8.46a69.79,69.79,0,0,0-8.46,7.17Z"/><path d="M160.1,301.46q-1.87,1.14-3.86,2.15a94.22,94.22,0,0,1-12.67,4.78,5.37,5.37,0,0,0-1.89.92c-2.13,1.84.21,2.45,1.73,2.6a61,61,0,0,0,10,.11c8.6-.61,17.58-2.94,24.91-7.63Q169,303,160.1,301.46Z"/><path d="M95.12,283.66c-.8.93-2.19,2.09-3.43,3.49s-1.79,3.15-.71,4.51,3.45,2.23,5.72,2a35.43,35.43,0,0,0,6.58-1.24,53.81,53.81,0,0,0,5.09-1.77c.88-.35,1.72-.72,2.54-1.11C105.29,287.7,100,285.74,95.12,283.66Z"/><path d="M503.06,239.8a30.85,30.85,0,0,1-2.15,4.35,17.28,17.28,0,0,1,2.24,8.35c0,18-30.2,32.61-67.45,32.61-22,0-41.55-5.09-53.86-13-19.26,10.5-36.75,23.71-53.77,40.1,87.91-2,172-14.85,208-36.81,7.2-4.38,10.74-23.29,9.35-37.87C530.37,237.94,516.3,238.66,503.06,239.8Z"/><path d="M225.79,275.63c-12.34,6.61-30.2,10.76-50.06,10.76-37.25,0-67.46-14.6-67.46-32.61a17.43,17.43,0,0,1,2.51-8.79v0c-13.52-1.32-27.4-2.06-41.62-2.39-.18,13.61,3.35,29,9.68,32.85,38.39,23.42,119.21,35.23,203.51,36.89A282.65,282.65,0,0,0,225.79,275.63Z"/><path d="M494.27,240.62a25.81,25.81,0,0,1-4,4.7,52.5,52.5,0,0,1-16,9.94c-11.92,4.9-25.15,6.85-38.22,6.8a115.73,115.73,0,0,1-25.22-3.19l-14.07,5.85c12.55,5.16,26,7,39.29,7,14.17-.33,28.51-2.54,41.66-8.62a59.8,59.8,0,0,0,18.13-12.25,31.89,31.89,0,0,0,7.27-11Z"/><path d="M110.77,245a32.09,32.09,0,0,0,7.42,11.38,60.13,60.13,0,0,0,18.13,12.26c13.15,6.05,27.47,8.29,41.63,8.59,12.7,0,25.58-1.65,37.65-6.3l-14.71-6A119.65,119.65,0,0,1,178,267.56c-13,.05-26.27-1.92-38.22-6.82a52.25,52.25,0,0,1-16-9.91,26,26,0,0,1-4.16-4.91Z"/><path d="M522.21,209.49c13.09,4,25,9.07,35.21,15.39-18.85.25-36.33,1-52.67,2.37-2.34.19-4.66.42-7,.64-41.06,3.94-74.7,11.86-104.14,24.8-3.51,1.57-7,3.17-10.38,4.86-26.94,13.42-50.45,31.5-73.21,55.1-3.06,3.19-7.49.78-9.63-1.17a294,294,0,0,0-70.72-47.73c-3.56-1.69-7.2-3.31-10.83-4.88C188.71,246,155.05,237.68,116.2,233.42c-2.32-.25-4.63-.5-7-.72-18.9-1.82-39-2.69-60.55-2.69q-14.76,0-30.41.55c19.75-8.34,43.53-14.92,69.13-20.1l-14-9.81c-26.5,5.95-48.91,13.12-67,21.52a11,11,0,0,0-6,12.77,10.79,10.79,0,0,0,11,8.34c35.16-1.47,68.2-1.37,99.45,1.69l8.79.95c28.56,3.34,55.61,9.34,81.33,19l14.71,6a284,284,0,0,1,76.47,49.82,21.65,21.65,0,0,0,14.4,5.95A17.19,17.19,0,0,0,319,321.3c24.15-25.05,48.75-43.48,77.69-56.58l14.07-5.85c24.07-9.06,51.27-14.94,83.49-18.25l8.79-.82c20.37-1.75,42.65-2.54,67.35-2.54a8.4,8.4,0,0,0,7.9-5.48,8,8,0,0,0-2.44-8.89c-11-9.19-24.43-16.34-39.57-21.91Z"/><path d="M357.69,261.41a175.09,175.09,0,0,0-35.46,27.7c-12.37,13.84-26.42,7.43-37.9-4-12.57-11-28.66-20.22-43.17-27a72.46,72.46,0,0,1,24.19,1.83,93.84,93.84,0,0,1,23.8,9.25,87.55,87.55,0,0,1,7.6,4.73c1.22.85,2.42,1.74,3.59,2.65s2.25,2.08,3.51,2.91a3.87,3.87,0,0,0,3.51.69,16.08,16.08,0,0,0,3.43-1.81c2.4-1.6,4.76-3.17,7.25-4.6a119.85,119.85,0,0,1,12.62-6.32c8.19-3.49,17-6.09,26-6A3.51,3.51,0,0,0,357.69,261.41Z"/><path d="M547.26,161.68a134.24,134.24,0,0,0-4.11-27c-9.09-34.91-32.37-64.14-61-85.33-16.49-12.18-34.89-21-54.19-27.79A395.49,395.49,0,0,0,373.25,6.28,335.77,335.77,0,0,0,265.58,2.77c-36.38,4.7-72.19,15-104.26,33A220,220,0,0,0,139.83,49.5C108.18,72.71,83,104.81,70.71,142.36a98.49,98.49,0,0,0-5.21,28.88c-.12,8.87,1.12,19.7,6.23,27.25.52.77,1.09,1.46,1.67,2.16l14,9.81a74.65,74.65,0,0,0,7.76,2.77c10.11,2.93,20.45,5.2,30.73,7.49a813,813,0,0,0,132.08,18.1,806.11,806.11,0,0,0,132.27-3.56q33.39-3.62,66.46-10c10.61-2.06,21.16-4.4,31.72-6.79,6.8-1.55,13.65-2.84,20.39-4.61a104.18,104.18,0,0,0,13.43-4.41L536.3,201a30.46,30.46,0,0,0,7.84-10.56C548,181.58,547.73,171.17,547.26,161.68Zm-16.06,10c-.08,2.49-.2,5-.43,7.49a.69.69,0,0,0,.05-.17,1.57,1.57,0,0,1-.05.37v-.17c0,.37-.12.69-.2,1.07-.17.77-.4,1.54-.64,2.31-.08.3-.13.45-.15.58.25-.4-.13.57,0,0a1.14,1.14,0,0,0-.15.25c-.33.57-.6,1.17-1,1.71-.12.23-.62,1-.85,1.3l.13-.13a.65.65,0,0,1-.1.15c-.05.05-.08.1-.1.1-.32.33-.77.87-1,1-.5.55-1.07,1.07-1.62,1.59-.12.1-.57.45-.87.72l-.1.1-.17.15h0c-.39.23-1,.68-1.17.78-.77.49-1.57,1-2.36,1.41-1.25.7-2.52,1.3-3.79,1.92,0,0-.05,0-.07,0a6.15,6.15,0,0,1-.62.28h0c-.1.05-.23.07-.35.12-.92.37-1.85.7-2.77,1.05-3.23,1.12-6.52,2-9.83,2.88-4.53,1.15-9.12,2.1-13.7,3.07-2,.42-3.93.87-5.9,1.32-20.42,4.68-41,8.74-61.65,11.9A790.19,790.19,0,0,1,296,223.83,794.43,794.43,0,0,1,170.43,213q-22.74-3.85-45.22-9c-5.57-1.27-11.15-2.62-16.73-4-4.31-1.07-8.66-2.12-12.87-3.59l-.48-.17a19.93,19.93,0,0,1-3.68-1.59c-.9-.48-1.77-1-2.62-1.52l-.87-.6h0a1.38,1.38,0,0,1-.18-.13.19.19,0,0,0,.1.05c-.15-.12-.32-.27-.42-.34-.3-.28-.6-.58-.9-.88a9.59,9.59,0,0,0-.72-.72s0,0-.07-.07v0c-.18-.32-.75-1.17-.92-1.49a5.51,5.51,0,0,1-.75-1.74c-.32-1-.65-2.07-1-3.12a39.89,39.89,0,0,1-1.44-11.35c-.15-16.91,6.7-34.12,14.64-49.18A173.85,173.85,0,0,1,128,80.56a181,181,0,0,1,20-17.09c27.71-20.14,58.86-32.67,92.18-40a323.28,323.28,0,0,1,102.14-5.55c8.22.84,15,1.81,23.51,3.38,7.94,1.47,15.84,3.26,23.63,5.41,18.48,5.05,37.15,10.45,54.51,18.65,30.63,14.46,57.27,37.42,73.23,67.2a120.22,120.22,0,0,1,13.6,44.87A131.19,131.19,0,0,1,531.2,171.72Z"/><path class="cls-1" d="M356,103.1s-2.13-7.06,6.52-6.8,24.81,7.75,24.81,7.75-15.56,6.53-24.21,6.27S356,103.1,356,103.1Z"/><path class="cls-1" d="M176,72.9s-2.12-7.06,6.53-6.8,24.8,7.75,24.8,7.75-15.55,6.53-24.2,6.27S176,72.9,176,72.9Z"/><path class="cls-1" d="M482.75,140.51a5.72,5.72,0,0,1-.28,3.15c-.64,1.53-2.32,3-6.41,2.66s-9.76-2.67-14.29-5a85.86,85.86,0,0,1-8-4.67s3.84-.79,8.61-1.6,10.45-1.68,14.39-1.32,5.42,2,5.94,3.64A5.86,5.86,0,0,1,482.75,140.51Z"/><path class="cls-1" d="M415.22,68.89a6,6,0,0,1,.15,3.15c-.41,1.6-1.81,3.3-5.75,3.43S400,74,395.39,72.23s-8.19-3.55-8.19-3.55,3.53-1.34,8-2.73,9.72-2.91,13.5-3.05,5.41,1.32,6.11,2.86A6,6,0,0,1,415.22,68.89Z"/><path class="cls-1" d="M249.19,52.51s-1.22-6.11,6.59-5.24,21.71,8.4,21.71,8.4S262.74,60,254.92,59.12,249.19,52.51,249.19,52.51Z"/><path class="cls-1" d="M313.47,97.74s.89,6.17-6.86,4.88-21.24-9.53-21.24-9.53,15-3.54,22.72-2.26S313.47,97.74,313.47,97.74Z"/><path class="cls-1" d="M447,85.52c4.36.21,13.59-.36,21.38,7.29-8.34,6.89-17.22,5.47-21.56,5.26-5.43-.26-5.74-3.09-5.71-6.55S441.47,85.26,447,85.52Z"/><path class="cls-1" d="M338.72,140c4.36.21,13.58-.36,21.37,7.3-8.34,6.88-17.22,5.46-21.55,5.25-5.44-.26-5.74-3.09-5.72-6.55S333.19,139.72,338.72,140Z"/><path class="cls-1" d="M346.24,48.61c-3.94-.23-12.18-1.69-20,5,6.76,7.56,14.9,7,18.82,7.26,4.91.28,5.49-2.45,5.84-5.84S351.24,48.89,346.24,48.61Z"/><path class="cls-1" d="M411.14,120c4.36.21,13.59-.36,21.38,7.3-8.34,6.88-17.22,5.46-21.56,5.25-5.43-.26-5.74-3.09-5.71-6.55S405.62,119.76,411.14,120Z"/><path class="cls-1" d="M234.21,93.92c4.32.65,13.55,1,20.52,9.44-9,6-17.69,3.68-22,3-5.38-.81-5.4-3.66-5-7.1S228.74,93.1,234.21,93.92Z"/><path class="cls-1" d="M167.93,126.6c-4.36-.21-13.59.36-21.38-7.29,8.34-6.89,17.23-5.47,21.56-5.26,5.43.26,5.74,3.09,5.72,6.55S173.45,126.86,167.93,126.6Z"/><path class="cls-1" d="M240.85,138.09c4.36,0,13.54-1.13,21.76,6.06-7.93,7.36-16.89,6.44-21.22,6.48-5.44.05-5.91-2.75-6.08-6.21S235.32,138.14,240.85,138.09Z"/></g></g></svg>