<?xml version="1.0" encoding="UTF-8" standalone="no"?>
<!-- Created with Inkscape (http://www.inkscape.org/) -->

<svg
   xmlns:dc="http://purl.org/dc/elements/1.1/"
   xmlns:cc="http://creativecommons.org/ns#"
   xmlns:rdf="http://www.w3.org/1999/02/22-rdf-syntax-ns#"
   xmlns:svg="http://www.w3.org/2000/svg"
   xmlns="http://www.w3.org/2000/svg"
   version="1.2"
   width="750"
   height="600"
   viewBox="0 0 750 600"
   id="Layer_1"
   xml:space="preserve"
   style="overflow:visible"><metadata
     id="metadata24"><rdf:RDF><cc:Work
         rdf:about=""><dc:format>image/svg+xml</dc:format><dc:type
           rdf:resource="http://purl.org/dc/dcmitype/StillImage" /><dc:title></dc:title></cc:Work></rdf:RDF></metadata><defs
     id="defs22" /><g
     id="g3861"><g
       id="g5"><path
         d="M 0,50 C 0,22.385742 22.385254,0 50,0 h 650 c 27.61426,0 50,22.385742 50,50 v 500 c 0,27.61523 -22.38574,50 -50,50 H 50 C 22.385254,600 0,577.61523 0,550 V 50 l 0,0 z"
         id="path7" /><path
         d="M 375,300"
         id="path9" /></g><path
       d="M 375,10.001953 C 338.67236,32.46582 295.85059,45.430664 250,45.430664 204.14941,45.430664 161.32715,32.463867 125,10 L 10,125 c 21.163086,30.08057 33.587891,66.75244 33.587891,106.32764 0,28.56006 -6.471192,55.6084 -18.027832,79.7583 C 15.584961,331.95508 10,355.32617 10,380 10,468.36719 81.633301,540 170,540 H 270.11523 C 312.4585,540 350.24854,559.49414 375,589.99805 399.75098,559.49414 437.54102,540 479.88477,540 H 580 c 88.36719,0 160,-71.63281 160,-160 0,-24.67383 -5.58496,-48.04492 -15.56055,-68.91406 -11.55664,-24.1499 -18.02734,-51.19824 -18.02734,-79.7583 0,-39.5752 12.4248,-76.24707 33.58789,-106.32764 L 625,10 c -36.32715,22.463867 -79.14941,35.430664 -125,35.430664 -45.85059,0 -88.67285,-12.964844 -125,-35.428711 z"
       id="path11"
       style="fill:#ffffff;fill-opacity:1;fill-rule:evenodd" /></g><g
     id="text1331"
     style="font-size:447.76119995px;font-style:normal;font-variant:normal;font-weight:normal;font-stretch:normal;text-align:center;line-height:125%;writing-mode:lr-tb;text-anchor:middle;font-family:Roadgeek 2005 Series C;-inkscape-font-specification:Roadgeek 2005 Series C"><path
       d="m 255.83955,332.27612 c -1.8e-4,15.82098 -2.38824,30.44783 -7.16418,43.8806 -4.77629,13.43288 -11.34345,25.07466 -19.70149,34.92537 -8.35836,9.85076 -18.20909,17.61195 -29.55224,23.28358 -11.3434,5.67164 -23.73145,8.50746 -37.16418,8.50746 -13.43291,0 -26.41797,-2.2388 -38.95522,-6.71641 -12.23885,-4.47761 -23.880628,-11.04477 -34.925375,-19.7015 l 28.208955,-30.44776 c 7.46263,5.07468 14.3283,8.80601 20.59702,11.19403 6.26858,2.3881 13.13424,3.58213 20.59701,3.58209 8.05961,4e-5 15.52229,-1.64175 22.38806,-4.92537 6.86556,-3.58205 12.68645,-8.50741 17.46269,-14.77612 5.07449,-6.2686 8.95509,-13.73127 11.64179,-22.38806 2.98493,-8.65663 4.47747,-18.20886 4.47761,-28.65672 -1.4e-4,-16.41778 -3.73148,-29.25359 -11.19403,-38.50746 -7.46281,-9.25358 -17.4628,-13.88044 -30,-13.8806 -13.13442,1.6e-4 -25.0747,4.92553 -35.8209,14.77612 L 95.541044,287.05224 103.15298,137.5 l 141.04478,0 0,42.08955 -101.19403,0 -3.13433,63.13433 c 7.46261,-2.68637 13.43276,-4.32816 17.91045,-4.92538 4.77603,-0.89532 9.9999,-1.34308 15.67164,-1.34328 12.23869,2e-4 23.43271,2.38826 33.58209,7.16418 10.14911,4.4778 18.80582,11.04496 25.97015,19.70149 7.16401,8.35838 12.68639,18.35837 16.56717,30 4.17892,11.64193 6.26847,24.62699 6.26865,38.95523"
       id="path7205"
       style="font-family:Roadgeek 2005 Series C;-inkscape-font-specification:Roadgeek 2005 Series C" /><path
       d="m 291.26866,437.5 c 0.597,-10.14924 1.19402,-18.95521 1.79105,-26.41791 0.8955,-7.46265 1.79102,-14.17906 2.68657,-20.14925 1.194,-5.9701 2.53729,-11.64174 4.02985,-17.01493 1.79101,-5.67157 3.88056,-11.79097 6.26865,-18.35821 12.23877,-31.34317 28.35815,-56.26852 48.35821,-74.77612 1.79097,-1.49238 3.58201,-2.98491 5.37314,-4.47761 2.08946,-1.79088 4.47752,-3.73118 7.16418,-5.8209 2.98498,-2.08938 6.41781,-4.62669 10.29851,-7.61194 4.17899,-2.9849 9.25361,-6.56698 15.22388,-10.74627 9.85061,-6.86548 16.41777,-12.68637 19.70149,-17.46268 3.58195,-4.77592 5.37299,-10.89531 5.37313,-18.35821 -1.4e-4,-5.67142 -1.19417,-11.04455 -3.58209,-16.11941 -2.08969,-5.07438 -5.07476,-9.55199 -8.95522,-13.43283 -3.58222,-3.88034 -8.05983,-6.86542 -13.43284,-8.95523 -5.07474,-2.38779 -10.44787,-3.58182 -16.1194,-3.58209 -5.97024,2.7e-4 -11.49263,1.1943 -16.56716,3.58209 -5.07471,2.08981 -9.55232,5.07489 -13.43284,8.95523 -3.58216,3.88084 -6.56723,8.35845 -8.95522,13.43283 -2.08962,5.07486 -3.13439,10.44799 -3.13433,16.11941 l -42.08956,0 c 0.29849,-11.64156 2.5373,-22.53707 6.71642,-32.68657 4.47759,-10.4475 10.44773,-19.40271 17.91045,-26.86567 7.46264,-7.76091 16.2686,-13.73105 26.41791,-17.91045 10.14918,-4.47731 21.19394,-6.71611 33.13433,-6.71642 11.64168,3.1e-4 22.38794,2.23911 32.23881,6.71642 10.14911,4.47791 18.95507,10.5973 26.41791,18.35821 7.76102,7.46296 13.73117,16.26892 17.91045,26.41791 4.47742,10.1495 6.71623,21.04501 6.71641,32.68657 -1.8e-4,23.88079 -8.50764,43.58226 -25.52238,59.10448 -1.4927,1.19419 -3.13449,2.38822 -4.92538,3.58209 -1.49269,0.89568 -2.98522,2.0897 -4.47761,3.58208 l -10.29851,7.61195 -10.74627,7.16417 -11.64179,8.50747 c -4.77623,3.58221 -9.55234,7.91057 -14.32836,12.98507 -4.47771,4.77624 -8.95531,10.14936 -13.43283,16.11941 -4.17919,5.67173 -7.91053,11.79113 -11.19403,18.3582 -3.28366,6.26874 -5.97022,12.53739 -8.0597,18.80597 -1.79112,3.88066 -3.1344,7.46275 -4.02985,10.74627 -0.59709,2.98513 -1.49261,7.16423 -2.68657,12.53732 l 121.34328,0 0,42.08955 -167.46269,0"
       id="path7207"
       style="font-family:Roadgeek 2005 Series C;-inkscape-font-specification:Roadgeek 2005 Series C" /><path
       d="m 494.16046,437.5 c 0.597,-10.14924 1.19402,-18.95521 1.79105,-26.41791 0.8955,-7.46265 1.79102,-14.17906 2.68657,-20.14925 1.194,-5.9701 2.53729,-11.64174 4.02985,-17.01493 1.79101,-5.67157 3.88056,-11.79097 6.26865,-18.35821 12.23877,-31.34317 28.35815,-56.26852 48.35821,-74.77612 1.79097,-1.49238 3.58201,-2.98491 5.37314,-4.47761 2.08946,-1.79088 4.47752,-3.73118 7.16418,-5.8209 2.98498,-2.08938 6.41781,-4.62669 10.29851,-7.61194 4.17899,-2.9849 9.25361,-6.56698 15.22388,-10.74627 9.85061,-6.86548 16.41777,-12.68637 19.70149,-17.46268 3.58195,-4.77592 5.37299,-10.89531 5.37313,-18.35821 -1.4e-4,-5.67142 -1.19417,-11.04455 -3.58209,-16.11941 -2.08969,-5.07438 -5.07476,-9.55199 -8.95522,-13.43283 -3.58222,-3.88034 -8.05983,-6.86542 -13.43284,-8.95523 -5.07474,-2.38779 -10.44787,-3.58182 -16.1194,-3.58209 -5.97024,2.7e-4 -11.49263,1.1943 -16.56716,3.58209 -5.07471,2.08981 -9.55232,5.07489 -13.43284,8.95523 -3.58216,3.88084 -6.56723,8.35845 -8.95522,13.43283 -2.08962,5.07486 -3.13439,10.44799 -3.13433,16.11941 l -42.08956,0 c 0.29849,-11.64156 2.5373,-22.53707 6.71642,-32.68657 4.47759,-10.4475 10.44773,-19.40271 17.91045,-26.86567 7.46264,-7.76091 16.2686,-13.73105 26.41791,-17.91045 10.14918,-4.47731 21.19394,-6.71611 33.13433,-6.71642 11.64168,3.1e-4 22.38794,2.23911 32.23881,6.71642 10.14911,4.47791 18.95507,10.5973 26.41791,18.35821 7.76102,7.46296 13.73117,16.26892 17.91045,26.41791 4.47742,10.1495 6.71623,21.04501 6.71641,32.68657 -1.8e-4,23.88079 -8.50764,43.58226 -25.52238,59.10448 -1.4927,1.19419 -3.13449,2.38822 -4.92538,3.58209 -1.49269,0.89568 -2.98522,2.0897 -4.47761,3.58208 l -10.29851,7.61195 -10.74627,7.16417 -11.64179,8.50747 c -4.77623,3.58221 -9.55234,7.91057 -14.32836,12.98507 -4.47771,4.77624 -8.95531,10.14936 -13.43283,16.11941 -4.17919,5.67173 -7.91053,11.79113 -11.19403,18.3582 -3.28366,6.26874 -5.97022,12.53739 -8.0597,18.80597 -1.79112,3.88066 -3.1344,7.46275 -4.02985,10.74627 -0.59709,2.98513 -1.49261,7.16423 -2.68657,12.53732 l 121.34328,0 0,42.08955 -167.46269,0"
       id="path7209"
       style="font-family:Roadgeek 2005 Series C;-inkscape-font-specification:Roadgeek 2005 Series C" /></g></svg>