<?xml version="1.0" encoding="UTF-8" standalone="no"?>
<!-- Created with Inkscape (http://www.inkscape.org/) -->

<svg
   xmlns:dc="http://purl.org/dc/elements/1.1/"
   xmlns:cc="http://creativecommons.org/ns#"
   xmlns:rdf="http://www.w3.org/1999/02/22-rdf-syntax-ns#"
   xmlns:svg="http://www.w3.org/2000/svg"
   xmlns="http://www.w3.org/2000/svg"
   version="1.1"
   width="600"
   height="600"
   viewBox="0 0 600 600"
   id="Layer_1"
   xml:space="preserve"
   style="overflow:visible"><metadata
     id="metadata20"><rdf:RDF><cc:Work
         rdf:about=""><dc:format>image/svg+xml</dc:format><dc:type
           rdf:resource="http://purl.org/dc/dcmitype/StillImage" /><dc:title></dc:title></cc:Work></rdf:RDF></metadata><defs
     id="defs18" /><path
     d="M 300,300"
     id="path7" /><path
     d="m 300,10.00293 c 23.56445,20.075195 54.11719,32.191406 87.5,32.191406 33.38281,0 63.93555,-12.119141 87.5,-32.194336 l 115,115 c -21.16211,30.08105 -33.58789,66.75391 -33.58789,106.32617 0,28.46387 6.42676,55.42481 17.91016,79.5127 C 584.24414,331.66406 590,355.39453 590,380 590,468.36719 518.36719,540 430,540 H 404.88672 C 362.54199,540 324.75098,559.49512 300,590 275.24854,559.49512 237.45801,540 195.11328,540 H 169.99951 C 81.632813,540 9.9995117,468.36719 9.9995117,380 c 0,-24.60547 5.7563473,-48.33594 15.6787113,-69.16113 11.482422,-24.08789 17.910156,-51.04883 17.910156,-79.5127 C 43.588379,191.75391 31.161621,155.08105 10,125 L 125,10 c 23.56445,20.075195 54.1167,32.194336 87.5,32.194336 33.38281,0 63.93555,-12.116211 87.5,-32.191406 z"
     id="path11"
     style="fill:#ffffff;fill-opacity:1;fill-rule:evenodd" /><g
     id="g3886"><path
       d="M 0,50 C 0,22.385742 22.385254,0 50,0 h 500 c 27.61426,0 50,22.385742 50,50 v 500 c 0,27.61523 -22.38574,50 -50,50 H 50 C 22.385254,600 0,577.61523 0,550 V 50 l 0,0 z"
       id="path5" /><path
       d="m 300,10.00293 c 23.56445,20.075195 54.11719,32.191406 87.5,32.191406 33.38281,0 63.93555,-12.119141 87.5,-32.194336 l 115,115 c -21.16211,30.08105 -33.58789,66.75391 -33.58789,106.32617 0,28.46387 6.42676,55.42481 17.91016,79.5127 C 584.24414,331.66406 590,355.39453 590,380 590,468.36719 518.36719,540 430,540 H 404.88672 C 362.54199,540 324.75098,559.49512 300,590 275.24854,559.49512 237.45801,540 195.11328,540 H 169.99951 C 81.632813,540 9.9995117,468.36719 9.9995117,380 c 0,-24.60547 5.7563473,-48.33594 15.6787113,-69.16113 11.482422,-24.08789 17.910156,-51.04883 17.910156,-79.5127 C 43.588379,191.75391 31.161621,155.08105 10,125 L 125,10 c 23.56445,20.075195 54.1167,32.194336 87.5,32.194336 33.38281,0 63.93555,-12.116211 87.5,-32.191406 z"
       id="path13"
       style="fill:#ffffff;fill-opacity:1;fill-rule:evenodd;stroke:#000000;stroke-linecap:round;stroke-linejoin:round;stroke-miterlimit:3.863693" /></g><g
     id="text1343"
     style="font-size:447.76119995px;font-style:normal;font-variant:normal;font-weight:normal;font-stretch:normal;text-align:center;line-height:125%;writing-mode:lr-tb;text-anchor:middle;font-family:Roadgeek 2005 Series D"><path
       d="m 270.38129,326.90298 c -2.4e-4,16.71652 -3.28382,32.08963 -9.85075,46.11941 -6.26887,14.0299 -15.22409,26.26869 -26.86567,36.71642 -11.64198,10.44777 -25.52256,18.65672 -41.64179,24.62686 -15.82104,5.67164 -33.28371,8.50746 -52.38806,8.50746 -13.13442,0 -26.11948,-1.49254 -38.95523,-4.47761 -12.537363,-2.98507 -24.029889,-7.16417 -34.47761,-12.53731 l 23.283582,-42.08955 c 6.268598,3.28363 14.477548,5.97019 24.626868,8.0597 10.14916,1.79109 20.74617,2.68661 31.79104,2.68656 10.74615,5e-5 20.74614,-1.64174 30,-4.92537 9.55209,-3.58204 17.76104,-8.35815 24.62687,-14.32836 7.16401,-5.97008 12.68639,-12.985 16.56716,-21.04477 3.88042,-8.35812 5.82071,-17.46259 5.8209,-27.31344 -1.9e-4,-7.46256 -1.49272,-14.32823 -4.47761,-20.59701 -2.68675,-6.26852 -6.56734,-11.7909 -11.64179,-16.56717 -4.77629,-4.77596 -10.44792,-8.5073 -17.01493,-11.19403 -6.2688,-2.6864 -13.13447,-4.02968 -20.59701,-4.02985 -5.37327,1.7e-4 -10.14938,0.44793 -14.32836,1.34329 -3.88071,0.89568 -7.61205,2.53747 -11.19403,4.92537 -3.5822,2.38821 -7.16428,5.67179 -10.74627,9.85075 -3.58218,3.88074 -7.61203,8.95536 -12.08955,15.22388 L 73.366359,292.42537 80.978299,137.5 l 172.388061,0 0,47.46268 -126.26866,0 -3.13433,49.25374 c 11.04468,-3.28338 19.70139,-5.52218 25.97015,-6.71642 6.26854,-1.19382 13.13421,-1.79084 20.59702,-1.79105 13.73119,2.1e-4 26.567,2.68678 38.50746,8.0597 12.23862,5.37334 22.83563,12.68676 31.79105,21.9403 9.25352,9.25391 16.41769,20.00016 21.49254,32.23881 5.3729,12.23894 8.05946,25.224 8.0597,38.95522"
       id="path4420" /><path
       d="m 533.61591,341.6791 c -2.4e-4,13.73143 -2.83606,26.71649 -8.50747,38.95523 -5.37335,12.23885 -12.83603,22.98511 -22.38806,32.2388 -9.25392,9.25375 -20.00018,16.56718 -32.2388,21.9403 -12.23897,5.37313 -25.22403,8.0597 -38.95523,8.0597 -13.73146,0 -26.71652,-2.68657 -38.95522,-8.0597 -12.23889,-5.37312 -23.1344,-12.68655 -32.68657,-21.9403 -9.25378,-9.25369 -16.71646,-19.99995 -22.38806,-32.2388 -5.37317,-12.23874 -8.05973,-25.2238 -8.0597,-38.95523 -3e-5,-14.32825 2.98504,-27.16405 8.95522,-38.50746 5.97011,-11.64165 14.47756,-21.94014 25.52239,-30.89552 -14.62691,-15.52221 -21.94034,-33.73115 -21.9403,-54.62687 -4e-5,-11.64156 2.38802,-22.53707 7.16418,-32.68657 4.77607,-10.4475 11.19397,-19.55196 19.25373,-27.31343 8.35814,-8.05941 17.91036,-14.32806 28.65672,-18.80597 10.74616,-4.47731 22.23869,-6.71611 34.47761,-6.71642 11.94016,3.1e-4 23.43268,2.23911 34.47761,6.71642 11.0446,4.47791 20.59683,10.74656 28.65672,18.80597 8.35801,7.76147 14.92517,16.86593 19.70149,27.31343 5.07441,10.1495 7.61172,21.04501 7.61194,32.68657 -2.2e-4,10.44797 -2.08977,20.29871 -6.26865,29.55224 -3.88081,8.95541 -9.55245,17.31361 -17.01493,25.07463 11.64158,8.95538 20.29829,19.40313 25.97015,31.34328 5.96992,11.64191 8.95499,24.32847 8.95523,38.0597 m -60,-125.37313 c -1.8e-4,-9.85052 -4.17928,-18.20872 -12.53732,-25.07463 -8.05985,-7.16393 -17.91059,-10.74601 -29.55224,-10.74627 -11.64191,2.6e-4 -21.6419,3.58234 -30,10.74627 -8.05979,6.86591 -12.08964,15.22411 -12.08955,25.07463 -9e-5,8.95543 4.02976,16.71662 12.08955,23.28358 8.3581,6.26885 18.35809,9.40317 30,9.40298 11.64165,1.9e-4 21.49239,-3.13413 29.55224,-9.40298 8.35804,-6.56696 12.53714,-14.32815 12.53732,-23.28358 m 12.53731,126.26866 c -1.9e-4,-6.26856 -1.49272,-12.08945 -4.47761,-17.46269 -2.98526,-5.67152 -7.0151,-10.44764 -12.08956,-14.32836 -4.77628,-4.17897 -10.44792,-7.46255 -17.01492,-9.85075 -6.56731,-2.38792 -13.58223,-3.58195 -21.04478,-3.58209 -7.46281,1.4e-4 -14.47773,1.19417 -21.04477,3.58209 -6.26877,2.3882 -11.9404,5.67178 -17.01493,9.85075 -4.77621,3.88072 -8.6568,8.65684 -11.64179,14.32836 -2.68665,5.37324 -4.02993,11.19413 -4.02985,17.46269 -8e-5,7.16426 1.3432,13.88067 4.02985,20.14925 2.98499,6.26872 6.86558,11.79111 11.64179,16.56716 5.07453,4.77618 10.74616,8.50752 17.01493,11.19403 6.56704,2.68662 13.58196,4.0299 21.04477,4.02985 7.46255,5e-5 14.47747,-1.34323 21.04478,-4.02985 6.86551,-2.68651 12.6864,-6.41785 17.46269,-11.19403 5.07445,-4.77605 8.95504,-10.29844 11.64179,-16.56716 2.98489,-6.26858 4.47742,-12.98499 4.47761,-20.14925"
       id="path4422" /></g></svg>