<?xml version="1.0" encoding="UTF-8" standalone="no"?><!DOCTYPE svg PUBLIC "-//W3C//DTD SVG 1.1//EN" "http://www.w3.org/Graphics/SVG/1.1/DTD/svg11.dtd"><svg width="100%" height="100%" viewBox="0 0 1213 1062" version="1.1" xmlns="http://www.w3.org/2000/svg" xmlns:xlink="http://www.w3.org/1999/xlink" xml:space="preserve" xmlns:serif="http://www.serif.com/" style="fill-rule:evenodd;clip-rule:evenodd;stroke-linecap:round;stroke-linejoin:round;stroke-miterlimit:1.5;"><rect id="Artboard1" x="0" y="0" width="1212.71" height="1061.46" style="fill:none;"/><path id="Star" d="M625.127,39.178l59.306,291.024l232.497,-184.816l-141.635,261.058l296.901,7.87l-276.304,108.941l222.38,196.872l-281.686,-94.151l43.806,293.756l-155.265,-253.188l-155.266,253.188l43.807,-293.756l-281.687,94.151l222.38,-196.872l-276.303,-108.941l296.9,-7.87l-141.635,-261.058l232.497,184.816l59.307,-291.024Z" style="fill:#0f5;stroke:#f00;stroke-width:12.5px;"/><g id="Shoes"><path id="LeftShoe" d="M211.688,194.239c-51.293,-203.29 142.912,113.927 142.912,113.927c0,0 -292.416,154.183 -244.746,-1.578c47.671,-155.761 153.127,90.941 101.834,-112.349Z" style="fill:#f183ed;stroke:#1cff00;stroke-width:14.58px;"/><path id="RightShoe" d="M1041.72,191.878c51.293,-203.29 -142.912,113.928 -142.912,113.928c0,-0 292.417,154.182 244.746,-1.579c-47.67,-155.761 -153.127,90.941 -101.834,-112.349Z" style="fill:#f183ed;stroke:#1cff00;stroke-width:14.58px;"/></g><g id="RedDots"><ellipse cx="476.364" cy="987.833" rx="47.649" ry="45.694" style="fill:#f00;stroke:#000;stroke-width:3.54px;"/><ellipse cx="600.11" cy="910.789" rx="47.649" ry="45.694" style="fill:#f00;stroke:#000;stroke-width:3.54px;"/><path d="M143.215,482.33c0,26.298 -20.474,47.649 -45.694,47.649c-25.219,0 -45.693,-21.351 -45.693,-47.649c-0,-26.298 20.474,-47.648 45.693,-47.648c25.22,-0 45.694,21.35 45.694,47.648Z" style="fill:#f00;stroke:#000;stroke-width:3.54px;"/><path d="M220.259,606.076c0,26.298 -20.474,47.649 -45.693,47.649c-25.219,0 -45.694,-21.351 -45.694,-47.649c-0,-26.298 20.475,-47.648 45.694,-47.648c25.219,-0 45.693,21.35 45.693,47.648Z" style="fill:#f00;stroke:#000;stroke-width:3.54px;"/><path d="M144.574,728.274c0,26.298 -20.474,47.648 -45.693,47.648c-25.22,0 -45.694,-21.35 -45.694,-47.648c-0,-26.298 20.474,-47.649 45.694,-47.649c25.219,-0 45.693,21.351 45.693,47.649Z" style="fill:#f00;stroke:#000;stroke-width:3.54px;"/><ellipse cx="722.307" cy="986.474" rx="47.649" ry="45.694" style="fill:#f00;stroke:#000;stroke-width:3.54px;"/><path d="M1086.64,720.496c0,-26.298 20.475,-47.649 45.694,-47.649c25.219,0 45.694,21.351 45.694,47.649c-0,26.298 -20.475,47.649 -45.694,47.649c-25.219,-0 -45.694,-21.351 -45.694,-47.649Z" style="fill:#f00;stroke:#000;stroke-width:3.54px;"/><path d="M1009.59,596.75c0,-26.298 20.475,-47.649 45.694,-47.649c25.219,0 45.694,21.351 45.694,47.649c-0,26.298 -20.475,47.649 -45.694,47.649c-25.219,-0 -45.694,-21.351 -45.694,-47.649Z" style="fill:#f00;stroke:#000;stroke-width:3.54px;"/><path d="M1085.28,474.553c0,-26.298 20.475,-47.649 45.694,-47.649c25.219,0 45.694,21.351 45.694,47.649c-0,26.298 -20.475,47.648 -45.694,47.648c-25.219,0 -45.694,-21.35 -45.694,-47.648Z" style="fill:#f00;stroke:#000;stroke-width:3.54px;"/></g><circle id="Circle" cx="629.819" cy="492.208" r="107.583" style="fill:#fe0;stroke:#000;stroke-width:3.54px;"/></svg>