<?xml version="1.0" encoding="UTF-8" standalone="no"?><!DOCTYPE svg PUBLIC "-//W3C//DTD SVG 1.1//EN" "http://www.w3.org/Graphics/SVG/1.1/DTD/svg11.dtd"><svg width="100%" height="100%" viewBox="0 0 2733 2175" version="1.1" xmlns="http://www.w3.org/2000/svg" xmlns:xlink="http://www.w3.org/1999/xlink" xml:space="preserve" xmlns:serif="http://www.serif.com/" style="fill-rule:evenodd;clip-rule:evenodd;stroke-linecap:round;stroke-linejoin:round;stroke-miterlimit:1.5;"><rect id="Artboard1" x="0" y="0" width="2732.16" height="2174.99" style="fill:none;"/><path id="Zigzag" d="M1526.15,658.488l95.232,-251.066l110.178,245.437l112.51,-249.215l118.547,255.722l121.258,-256.443" style="fill:none;stroke:#000;stroke-width:29.17px;"/><path id="Solid-Zag" serif:id="Solid Zag" d="M2211.38,725.306l125.367,-50.469c-0,-0 -44.15,105.45 -44.15,105.45c-5.03,12.015 -2.601,25.861 6.22,35.446c8.821,9.584 22.418,13.153 34.809,9.135l131.682,-42.697c-0,-0 -32.542,97.772 -32.542,97.772c-4.116,12.366 -0.647,25.998 8.88,34.892c9.528,8.894 23.365,11.42 35.42,6.465l174.012,-71.526c17.016,-6.994 25.153,-26.487 18.158,-43.503c-6.994,-17.016 -26.487,-25.152 -43.503,-18.158l-106.744,43.876c-0,0 30.402,-91.341 30.402,-91.341c3.971,-11.931 0.89,-25.08 -7.966,-34.006c-8.857,-8.925 -21.982,-12.108 -33.943,-8.229l-125.349,40.643c0,0 46.918,-112.06 46.918,-112.06c5.192,-12.402 2.426,-26.709 -7.015,-36.281c-9.441,-9.572 -23.709,-12.535 -36.181,-7.514l-199.371,80.262c-17.067,6.87 -25.344,26.304 -18.474,43.37c6.871,17.066 26.304,25.344 43.37,18.473Z" style="fill:#ffe000;stroke:#da2759;stroke-width:8.33px;stroke-linecap:butt;stroke-miterlimit:2;"/><path id="Squiggle" d="M911.027,199.254c0,-0 103.21,-233.903 215.051,-4.251c111.842,229.652 217.321,-11.583 217.321,-11.583c-0,0 87.394,-200.166 185.224,3.201c97.83,203.366 189.984,43.909 218.01,-13.123" style="fill:none;stroke:#000;stroke-width:50px;"/><path id="Wiggle" d="M1019.56,1132.06c25.971,34.628 99.138,42.274 125.166,16.243c22.714,-22.717 52.422,-74.678 8.591,-99.045c-21.137,-11.75 -93.643,-18.021 -85.679,-46.985c22.437,-81.591 106.836,-102.386 159.189,-84.121c68.102,23.76 63.034,95.946 63.034,155.438c-0,102.108 -8.266,163.598 50.939,190.282c23.472,10.58 57.55,15.688 106.952,15.688c27.168,0 56.406,-2.419 81.336,-14.884c32.289,-16.144 141.058,-104.14 96.587,-148.611c-12.346,-12.346 -34.989,-15.338 -54.193,-17.514c-76.052,-8.619 -55.926,80.348 -129.639,55.775c-26.235,-8.746 -38.218,-70.309 -38.218,-93.636" style="fill:none;stroke:#000;stroke-width:50px;"/><g id="Gun"><path d="M430.469,1158.92l-114.567,236.63l443.692,-230.206l-211.787,-394.085c-0,-0 229.285,-176.58 330.514,13.084c101.228,189.663 144.453,39.687 144.453,39.687c-0,0 136.946,-388.676 214.868,-213.404c77.921,175.271 171.983,251.899 171.983,251.899l-14.825,-482.255l-575.535,168.232" style="fill:none;stroke:#000;stroke-width:50px;"/><path d="M430.469,1158.92c178.061,0.685 163.96,-96.33 38.42,-187.198c-99.893,-72.304 -293.192,-140.722 -351.906,-152.88c-42.489,-8.799 14.083,-80.685 54.772,-101.028c43.783,-21.891 55.082,39.451 85.242,49.506c16.824,5.61 38.684,3.516 57.321,3.516c21.195,-0 48.095,0.943 56.219,-23.431c30.248,-90.743 -84.588,-59.748 -122.958,-98.118c-12.853,-12.854 -47.237,-65.861 -18.149,-75.558c44.45,-14.818 73.095,19.58 113.321,-0.533c10.728,-5.364 13.507,-42.97 9.667,-54.49c-16.795,-50.388 -49.833,-68.617 -42.185,-129.8c17.795,-142.367 116.16,-237.666 252.511,-271.754c26.839,-6.709 112.847,-38.546 137.793,-26.073c5.032,2.516 49.41,26.055 44.185,36.506c-3.39,6.78 -121.537,63.692 -126.674,67.116c-95.57,63.713 -167.902,147.248 -138.374,265.367c7.415,29.663 6.95,59.558 21.085,87.829c10.444,20.89 47.063,72.459 73.825,45.701c9.886,-9.886 -4.864,-102.743 -4.864,-116.072c0,-98.206 37.515,-168.029 132.106,-199.563c86.128,-28.713 -3.41,95.222 3.225,115.123c14.717,44.144 86.525,127.726 114.214,155.416" style="fill:none;stroke:#000;stroke-width:50px;"/></g><rect id="Rectangle" x="2197.02" y="86.114" width="246.481" height="432.78" style="fill:#ebebeb;stroke:#f00;stroke-width:12.5px;"/><ellipse id="Ellipse" cx="1858.51" cy="896.679" rx="306.071" ry="108.212" style="fill:#ffe500;stroke:#0015ff;stroke-width:12.5px;"/><path id="Green-Pill" serif:id="Green Pill" d="M280.844,1051.5c-0,-48.443 -39.33,-87.772 -87.772,-87.772l-36.137,0c-48.443,0 -87.772,39.329 -87.772,87.772l-0,143.286c-0,48.442 39.329,87.772 87.772,87.772l36.137,-0c48.442,-0 87.772,-39.33 87.772,-87.772l-0,-143.286Z" style="fill:#5eff00;"/><path id="Cog" d="M960.972,1277.95c-31.324,-4.386 -63.106,-4.386 -94.431,-0l32.717,97.215c-32.353,1.954 -63.978,10.428 -92.975,24.913l-20.274,-100.55c-29.32,11.865 -56.844,27.756 -81.779,47.216l76.941,67.832c-27.042,17.869 -50.193,41.02 -68.062,68.063l-67.833,-76.942c-19.46,24.935 -35.351,52.46 -47.216,81.78l100.55,20.274c-14.485,28.996 -22.958,60.621 -24.912,92.975l-97.216,-32.717c-4.385,31.324 -4.385,63.107 -0,94.431l97.216,-32.717c1.954,32.354 10.427,63.979 24.912,92.975l-100.55,20.274c11.865,29.32 27.756,56.845 47.216,81.78l67.833,-76.942c17.869,27.042 41.02,50.194 68.062,68.063l-76.941,67.832c24.935,19.46 52.459,35.351 81.779,47.216l20.274,-100.55c28.997,14.485 60.622,22.959 92.975,24.913l-32.717,97.215c31.325,4.385 63.107,4.385 94.431,0l-32.716,-97.215c32.353,-1.954 63.978,-10.428 92.974,-24.913l20.275,100.55c29.32,-11.865 56.844,-27.756 81.779,-47.216l-76.941,-67.832c27.042,-17.869 50.193,-41.021 68.062,-68.063l67.833,76.942c19.46,-24.935 35.351,-52.46 47.215,-81.78l-100.549,-20.274c14.484,-28.996 22.958,-60.621 24.912,-92.975l97.216,32.717c4.385,-31.324 4.385,-63.107 -0,-94.431l-97.216,32.717c-1.954,-32.354 -10.428,-63.979 -24.912,-92.975l100.549,-20.274c-11.864,-29.32 -27.755,-56.845 -47.215,-81.78l-67.833,76.942c-17.869,-27.043 -41.02,-50.194 -68.062,-68.063l76.941,-67.832c-24.935,-19.46 -52.459,-35.351 -81.779,-47.216l-20.275,100.55c-28.996,-14.485 -60.621,-22.959 -92.974,-24.913l32.716,-97.215Zm-47.215,166.486c94.26,0 170.788,76.528 170.788,170.788c-0,94.261 -76.528,170.789 -170.788,170.789c-94.261,-0 -170.788,-76.528 -170.788,-170.789c-0,-94.26 76.527,-170.788 170.788,-170.788Z" style="fill:#ff1700;"/><g id="Textbox-1" serif:id="Textbox 1" transform="matrix(5.39216,-1.28392,1.28392,5.39216,-1660.93,307.752)"><text x="480.467px" y="331.779px" style="font-family:'AmericanTypewriter', 'American Typewriter', serif;font-size:12px;">&apos;Twas the night before Christmas</text><text x="480.467px" y="343.779px" style="font-family:'AmericanTypewriter', 'American Typewriter', serif;font-size:12px;">and all through the house</text><text x="480.467px" y="355.779px" style="font-family:'AmericanTypewriter', 'American Typewriter', serif;font-size:12px;">Some guy was learning about SVGs</text><text x="480.467px" y="367.779px" style="font-family:'AmericanTypewriter', 'American Typewriter', serif;font-size:12px;">Thanks for reading this text box</text></g><path id="Trapezoid" d="M1677.63,1683.69l232.387,104.034l-675.106,192.819l98.022,-192.819l344.697,-104.034Z" style="fill:#ffe000;stroke:#da2759;stroke-width:8.33px;"/><g id="Textbox-2" serif:id="Textbox 2" transform="matrix(3.99595,-1.18046,1.18046,3.99595,-791.704,605.138)"><text x="379.363px" y="480.152px" style="font-family:'AmericanTypewriter', 'American Typewriter', serif;font-size:12px;">was a diamond...then after converting to a curve...</text><text x="379.363px" y="492.152px" style="font-family:'AmericanTypewriter', 'American Typewriter', serif;font-size:12px;">it&apos;s now a trapezoid...pretty WILD</text></g></svg>