<?xml version="1.0" encoding="UTF-8" standalone="no"?>
<!DOCTYPE svg PUBLIC "-//W3C//DTD SVG 1.1//EN" "http://www.w3.org/Graphics/SVG/1.1/DTD/svg11.dtd">
<svg width="100%" height="100%" viewBox="0 0 9934 14044" version="1.1" xmlns="http://www.w3.org/2000/svg" xmlns:xlink="http://www.w3.org/1999/xlink" xml:space="preserve" xmlns:serif="http://www.serif.com/" style="fill-rule:evenodd;clip-rule:evenodd;stroke-linecap:round;stroke-linejoin:round;stroke-miterlimit:1.5;">
    <g transform="matrix(1,0,0,1,1897.66,902.246)">
        <g transform="matrix(0.806135,0,0,0.464763,-2262.88,3132.04)">
            <path d="M5944.35,2811.08L7207.53,6482.87L4681.16,6482.87L5944.35,2811.08Z" style="fill:rgb(227,58,58);"/>
        </g>
        <g transform="matrix(1,0,0,1,1350.62,-3708.21)">
            <ellipse cx="2662.89" cy="8254.92" rx="626.852" ry="619.021" style="fill:rgb(255,235,0);"/>
        </g>
        <g transform="matrix(0.903481,0,0,0.848541,710.554,-1197.57)">
            <rect x="3628.47" y="8057.66" width="1447.09" height="1298.37" style="fill:rgb(18,255,0);"/>
        </g>
        <g transform="matrix(1,0,0,1,272.683,-429.307)">
            <path d="M2699.49,6933.74L3228.85,7314.42L3026.65,7930.38L2372.32,7930.38L2170.12,7314.42L2699.49,6933.74Z" style="fill:rgb(0,58,255);"/>
        </g>
        <g transform="matrix(1.43983,-1.17718,1.0594,1.29577,-8096.12,-1427.43)">
            <path d="M1459.13,6614.04C1162.97,6614.04 922.518,6834.93 922.518,7107.01C922.518,7379.08 1162.97,7599.97 1459.13,7599.97C1311.05,7517.81 1190.82,7325.2 1190.82,7107.01C1190.82,6888.81 1311.05,6696.2 1459.13,6614.04Z" style="fill:rgb(255,182,0);"/>
        </g>
        <g transform="matrix(1,0,0,1,-15.1806,310.25)">
            <path d="M1511.59,3916.34C1511.59,3916.34 1229.71,4411.07 1229.71,4623.1C1229.71,4778.68 1356.01,4904.98 1511.59,4904.98C1667.16,4904.98 1793.47,4778.68 1793.47,4623.1C1793.47,4411.07 1511.59,3916.34 1511.59,3916.34Z" style="fill:rgb(0,255,227);"/>
        </g>
        <g transform="matrix(1,0,0,1,-109.717,-67.0495)">
            <path d="M2688.61,3360.37L2805.84,3714.2L3185.19,3714.2L2878.28,3932.87L2995.51,4286.7L2688.61,4068.02L2381.71,4286.7L2498.93,3932.87L2192.03,3714.2L2571.39,3714.2L2688.61,3360.37Z" style="fill:rgb(207,0,255);"/>
        </g>
    </g>
    <g transform="matrix(0.469875,-0.434656,0.434656,0.469875,-1504.85,2812.46)">
        <g transform="matrix(0.806135,0,0,0.464763,-2262.88,3132.04)">
            <path d="M5944.35,2811.08L7207.53,6482.87L4681.16,6482.87L5944.35,2811.08Z" style="fill:rgb(227,58,58);"/>
        </g>
        <g transform="matrix(1,0,0,1,1350.62,-3708.21)">
            <ellipse cx="2662.89" cy="8254.92" rx="626.852" ry="619.021" style="fill:rgb(255,235,0);"/>
        </g>
        <g transform="matrix(0.903481,0,0,0.848541,710.554,-1197.57)">
            <rect x="3628.47" y="8057.66" width="1447.09" height="1298.37" style="fill:rgb(18,255,0);"/>
        </g>
        <g transform="matrix(1,0,0,1,272.683,-429.307)">
            <path d="M2699.49,6933.74L3228.85,7314.42L3026.65,7930.38L2372.32,7930.38L2170.12,7314.42L2699.49,6933.74Z" style="fill:rgb(0,58,255);"/>
        </g>
        <g transform="matrix(1.43983,-1.17718,1.0594,1.29577,-8096.12,-1427.43)">
            <path d="M1459.13,6614.04C1162.97,6614.04 922.518,6834.93 922.518,7107.01C922.518,7379.08 1162.97,7599.97 1459.13,7599.97C1311.05,7517.81 1190.82,7325.2 1190.82,7107.01C1190.82,6888.81 1311.05,6696.2 1459.13,6614.04Z" style="fill:rgb(255,182,0);"/>
        </g>
        <g transform="matrix(1,0,0,1,-15.1806,310.25)">
            <path d="M1511.59,3916.34C1511.59,3916.34 1229.71,4411.07 1229.71,4623.1C1229.71,4778.68 1356.01,4904.98 1511.59,4904.98C1667.16,4904.98 1793.47,4778.68 1793.47,4623.1C1793.47,4411.07 1511.59,3916.34 1511.59,3916.34Z" style="fill:rgb(0,255,227);"/>
        </g>
        <g transform="matrix(1,0,0,1,-109.717,-67.0495)">
            <path d="M2688.61,3360.37L2805.84,3714.2L3185.19,3714.2L2878.28,3932.87L2995.51,4286.7L2688.61,4068.02L2381.71,4286.7L2498.93,3932.87L2192.03,3714.2L2571.39,3714.2L2688.61,3360.37Z" style="fill:rgb(207,0,255);"/>
        </g>
    </g>
    <g transform="matrix(0.316536,0.274106,-0.274106,0.316536,4008.17,6533.6)">
        <g transform="matrix(0.806135,0,0,0.464763,-2262.88,3132.04)">
            <path d="M5944.35,2811.08L7207.53,6482.87L4681.16,6482.87L5944.35,2811.08Z" style="fill:rgb(227,58,58);"/>
        </g>
        <g transform="matrix(1,0,0,1,1350.62,-3708.21)">
            <ellipse cx="2662.89" cy="8254.92" rx="626.852" ry="619.021" style="fill:rgb(255,235,0);"/>
        </g>
        <g transform="matrix(0.903481,0,0,0.848541,710.554,-1197.57)">
            <rect x="3628.47" y="8057.66" width="1447.09" height="1298.37" style="fill:rgb(18,255,0);"/>
        </g>
        <g transform="matrix(1,0,0,1,272.683,-429.307)">
            <path d="M2699.49,6933.74L3228.85,7314.42L3026.65,7930.38L2372.32,7930.38L2170.12,7314.42L2699.49,6933.74Z" style="fill:rgb(0,58,255);"/>
        </g>
        <g transform="matrix(1.43983,-1.17718,1.0594,1.29577,-8096.12,-1427.43)">
            <path d="M1459.13,6614.04C1162.97,6614.04 922.518,6834.93 922.518,7107.01C922.518,7379.08 1162.97,7599.97 1459.13,7599.97C1311.05,7517.81 1190.82,7325.2 1190.82,7107.01C1190.82,6888.81 1311.05,6696.2 1459.13,6614.04Z" style="fill:rgb(255,182,0);"/>
        </g>
        <g transform="matrix(1,0,0,1,-15.1806,310.25)">
            <path d="M1511.59,3916.34C1511.59,3916.34 1229.71,4411.07 1229.71,4623.1C1229.71,4778.68 1356.01,4904.98 1511.59,4904.98C1667.16,4904.98 1793.47,4778.68 1793.47,4623.1C1793.47,4411.07 1511.59,3916.34 1511.59,3916.34Z" style="fill:rgb(0,255,227);"/>
        </g>
        <g transform="matrix(1,0,0,1,-109.717,-67.0495)">
            <path d="M2688.61,3360.37L2805.84,3714.2L3185.19,3714.2L2878.28,3932.87L2995.51,4286.7L2688.61,4068.02L2381.71,4286.7L2498.93,3932.87L2192.03,3714.2L2571.39,3714.2L2688.61,3360.37Z" style="fill:rgb(207,0,255);"/>
        </g>
    </g>
    <g transform="matrix(0.316663,0.329369,-0.329369,0.316663,8911.31,2917.18)">
        <g transform="matrix(0.806135,0,0,0.464763,-2262.88,3132.04)">
            <path d="M5944.35,2811.08L7207.53,6482.87L4681.16,6482.87L5944.35,2811.08Z" style="fill:rgb(227,58,58);"/>
        </g>
        <g transform="matrix(1,0,0,1,1350.62,-3708.21)">
            <ellipse cx="2662.89" cy="8254.92" rx="626.852" ry="619.021" style="fill:rgb(255,235,0);"/>
        </g>
        <g transform="matrix(0.903481,0,0,0.848541,710.554,-1197.57)">
            <rect x="3628.47" y="8057.66" width="1447.09" height="1298.37" style="fill:rgb(18,255,0);"/>
        </g>
        <g transform="matrix(1,0,0,1,272.683,-429.307)">
            <path d="M2699.49,6933.74L3228.85,7314.42L3026.65,7930.38L2372.32,7930.38L2170.12,7314.42L2699.49,6933.74Z" style="fill:rgb(0,58,255);"/>
        </g>
        <g transform="matrix(1.43983,-1.17718,1.0594,1.29577,-8096.12,-1427.43)">
            <path d="M1459.13,6614.04C1162.97,6614.04 922.518,6834.93 922.518,7107.01C922.518,7379.08 1162.97,7599.97 1459.13,7599.97C1311.05,7517.81 1190.82,7325.2 1190.82,7107.01C1190.82,6888.81 1311.05,6696.2 1459.13,6614.04Z" style="fill:rgb(255,182,0);"/>
        </g>
        <g transform="matrix(1,0,0,1,-15.1806,310.25)">
            <path d="M1511.59,3916.34C1511.59,3916.34 1229.71,4411.07 1229.71,4623.1C1229.71,4778.68 1356.01,4904.98 1511.59,4904.98C1667.16,4904.98 1793.47,4778.68 1793.47,4623.1C1793.47,4411.07 1511.59,3916.34 1511.59,3916.34Z" style="fill:rgb(0,255,227);"/>
        </g>
        <g transform="matrix(1,0,0,1,-109.717,-67.0495)">
            <path d="M2688.61,3360.37L2805.84,3714.2L3185.19,3714.2L2878.28,3932.87L2995.51,4286.7L2688.61,4068.02L2381.71,4286.7L2498.93,3932.87L2192.03,3714.2L2571.39,3714.2L2688.61,3360.37Z" style="fill:rgb(207,0,255);"/>
        </g>
    </g>
    <g transform="matrix(0.37721,-0.386756,0.386756,0.37721,3599.27,8195.12)">
        <g transform="matrix(0.806135,0,0,0.464763,-2262.88,3132.04)">
            <path d="M5944.35,2811.08L7207.53,6482.87L4681.16,6482.87L5944.35,2811.08Z" style="fill:rgb(227,58,58);"/>
        </g>
        <g transform="matrix(1,0,0,1,1350.62,-3708.21)">
            <ellipse cx="2662.89" cy="8254.92" rx="626.852" ry="619.021" style="fill:rgb(255,235,0);"/>
        </g>
        <g transform="matrix(0.903481,0,0,0.848541,710.554,-1197.57)">
            <rect x="3628.47" y="8057.66" width="1447.09" height="1298.37" style="fill:rgb(18,255,0);"/>
        </g>
        <g transform="matrix(1,0,0,1,272.683,-429.307)">
            <path d="M2699.49,6933.74L3228.85,7314.42L3026.65,7930.38L2372.32,7930.38L2170.12,7314.42L2699.49,6933.74Z" style="fill:rgb(0,58,255);"/>
        </g>
        <g transform="matrix(1.43983,-1.17718,1.0594,1.29577,-8096.12,-1427.43)">
            <path d="M1459.13,6614.04C1162.97,6614.04 922.518,6834.93 922.518,7107.01C922.518,7379.08 1162.97,7599.97 1459.13,7599.97C1311.05,7517.81 1190.82,7325.2 1190.82,7107.01C1190.82,6888.81 1311.05,6696.2 1459.13,6614.04Z" style="fill:rgb(255,182,0);"/>
        </g>
        <g transform="matrix(1,0,0,1,-15.1806,310.25)">
            <path d="M1511.59,3916.34C1511.59,3916.34 1229.71,4411.07 1229.71,4623.1C1229.71,4778.68 1356.01,4904.98 1511.59,4904.98C1667.16,4904.98 1793.47,4778.68 1793.47,4623.1C1793.47,4411.07 1511.59,3916.34 1511.59,3916.34Z" style="fill:rgb(0,255,227);"/>
        </g>
        <g transform="matrix(1,0,0,1,-109.717,-67.0495)">
            <path d="M2688.61,3360.37L2805.84,3714.2L3185.19,3714.2L2878.28,3932.87L2995.51,4286.7L2688.61,4068.02L2381.71,4286.7L2498.93,3932.87L2192.03,3714.2L2571.39,3714.2L2688.61,3360.37Z" style="fill:rgb(207,0,255);"/>
        </g>
    </g>
    <g transform="matrix(0.679377,0,0,0.510491,369.773,2555.68)">
        <path d="M1212.38,7265.82C1212.38,6953.18 1275.05,6699.36 1352.26,6699.36C1429.46,6699.36 1492.13,6953.18 1492.13,7265.82C1610.72,6995.07 1761.28,6816.56 1828.14,6867.44C1894.99,6918.33 1853,7179.46 1734.41,7450.21C1939.81,7293.89 2137.9,7238.53 2176.51,7326.67C2215.11,7414.8 2079.69,7613.27 1874.29,7769.59C2111.46,7769.59 2304.02,7852.21 2304.02,7953.98C2304.02,8055.74 2111.46,8138.37 1874.29,8138.37C2079.69,8294.69 2215.11,8493.15 2176.51,8581.29C2137.9,8669.42 1939.81,8614.06 1734.41,8457.74C1853,8728.5 1894.99,8989.63 1828.14,9040.51C1761.28,9091.4 1610.72,8912.89 1492.13,8642.13C1492.13,8954.77 1429.46,9208.6 1352.26,9208.6C1275.05,9208.6 1212.38,8954.77 1212.38,8642.13C1093.79,8912.89 943.232,9091.4 876.374,9040.51C809.515,8989.63 851.512,8728.5 970.098,8457.74C764.701,8614.06 566.605,8669.42 528.005,8581.29C489.404,8493.15 624.821,8294.69 830.219,8138.37C593.046,8138.37 400.493,8055.74 400.493,7953.98C400.493,7852.21 593.046,7769.59 830.219,7769.59C624.821,7613.27 489.404,7414.8 528.005,7326.67C566.605,7238.53 764.701,7293.89 970.098,7450.21C851.512,7179.46 809.515,6918.33 876.374,6867.44C943.232,6816.56 1093.79,6995.07 1212.38,7265.82Z" style="fill:rgb(253,0,255);stroke:black;stroke-width:83.21px;stroke-dasharray:83.21,83.21;"/>
    </g>
    <g transform="matrix(0.470727,-0.489867,0.368091,0.353709,1978.3,1560.83)">
        <path d="M1260.51,7502.61C1260.51,7059.28 1301.62,6699.36 1352.26,6699.36C1402.89,6699.36 1444,7059.28 1444,7502.61C1612.16,7118.68 1784.28,6834.07 1828.14,6867.44C1871.99,6900.82 1771.07,7239.62 1602.91,7623.56C1894.17,7401.89 2151.19,7268.86 2176.51,7326.67C2201.82,7384.47 1985.92,7611.37 1694.66,7833.03C2030.97,7833.03 2304.02,7887.23 2304.02,7953.98C2304.02,8020.73 2030.97,8074.92 1694.66,8074.92C1985.92,8296.59 2201.82,8523.48 2176.51,8581.29C2151.19,8639.09 1894.17,8506.06 1602.91,8284.4C1771.07,8668.33 1871.99,9007.14 1828.14,9040.51C1784.28,9073.89 1612.16,8789.27 1444,8405.34C1444,8848.67 1402.89,9208.6 1352.26,9208.6C1301.62,9208.6 1260.51,8848.67 1260.51,8405.34C1092.35,8789.27 920.226,9073.89 876.374,9040.51C832.521,9007.14 933.44,8668.33 1101.6,8284.4C810.341,8506.06 553.323,8639.09 528.005,8581.29C502.686,8523.48 718.593,8296.59 1009.85,8074.92C673.536,8074.92 400.493,8020.73 400.493,7953.98C400.493,7887.23 673.536,7833.03 1009.85,7833.03C718.593,7611.37 502.686,7384.47 528.005,7326.67C553.323,7268.86 810.341,7401.89 1101.6,7623.56C933.44,7239.62 832.521,6900.82 876.374,6867.44C920.226,6834.07 1092.35,7118.68 1260.51,7502.61Z" style="fill:rgb(255,96,0);fill-opacity:0.43;"/>
    </g>
    <g transform="matrix(0.32669,-0.339973,0.262868,0.252598,5902.05,5994.84)">
        <path d="M1260.51,7502.61C1260.51,7059.28 1301.62,6699.36 1352.26,6699.36C1402.89,6699.36 1444,7059.28 1444,7502.61C1612.16,7118.68 1784.28,6834.07 1828.14,6867.44C1871.99,6900.82 1771.07,7239.62 1602.91,7623.56C1894.17,7401.89 2151.19,7268.86 2176.51,7326.67C2201.82,7384.47 1985.92,7611.37 1694.66,7833.03C2030.97,7833.03 2304.02,7887.23 2304.02,7953.98C2304.02,8020.73 2030.97,8074.92 1694.66,8074.92C1985.92,8296.59 2201.82,8523.48 2176.51,8581.29C2151.19,8639.09 1894.17,8506.06 1602.91,8284.4C1771.07,8668.33 1871.99,9007.14 1828.14,9040.51C1784.28,9073.89 1612.16,8789.27 1444,8405.34C1444,8848.67 1402.89,9208.6 1352.26,9208.6C1301.62,9208.6 1260.51,8848.67 1260.51,8405.34C1092.35,8789.27 920.226,9073.89 876.374,9040.51C832.521,9007.14 933.44,8668.33 1101.6,8284.4C810.341,8506.06 553.323,8639.09 528.005,8581.29C502.686,8523.48 718.593,8296.59 1009.85,8074.92C673.536,8074.92 400.493,8020.73 400.493,7953.98C400.493,7887.23 673.536,7833.03 1009.85,7833.03C718.593,7611.37 502.686,7384.47 528.005,7326.67C553.323,7268.86 810.341,7401.89 1101.6,7623.56C933.44,7239.62 832.521,6900.82 876.374,6867.44C920.226,6834.07 1092.35,7118.68 1260.51,7502.61Z" style="fill:rgb(197,255,0);fill-opacity:0.43;stroke:black;stroke-width:19.77px;"/>
    </g>
    <g transform="matrix(0.192942,0.145586,-0.145586,0.192942,1756.5,7113.29)">
        <text x="1058.83px" y="9696.78px" style="font-family:'ArialMT', 'Arial', sans-serif;font-size:2127.23px;">the ﬁrst ﬁle.</text>
    </g>
</svg>
