<svg width="192" height="40" viewBox="0 0 192 40" fill="none" xmlns="http://www.w3.org/2000/svg">
<path d="M24.3483 27V12.4545H26.5429V25.1108H33.1338V27H24.3483ZM40.6286 27.2202C39.5538 27.2202 38.6282 26.9905 37.8516 26.5312C37.0799 26.0672 36.4833 25.4162 36.0619 24.5781C35.6452 23.7353 35.4369 22.7481 35.4369 21.6165C35.4369 20.4991 35.6452 19.5142 36.0619 18.6619C36.4833 17.8097 37.0704 17.1444 37.8232 16.6662C38.5808 16.188 39.4662 15.9489 40.4795 15.9489C41.095 15.9489 41.6916 16.0507 42.2693 16.2543C42.8469 16.4579 43.3654 16.7775 43.8247 17.2131C44.2839 17.6487 44.6462 18.2145 44.9113 18.9105C45.1765 19.6018 45.309 20.4422 45.309 21.4318V22.1847H36.6372V20.5938H43.2281C43.2281 20.035 43.1144 19.5402 42.8872 19.1094C42.6599 18.6738 42.3403 18.3305 41.9284 18.0795C41.5212 17.8286 41.0429 17.7031 40.4937 17.7031C39.8971 17.7031 39.3763 17.8499 38.9312 18.1435C38.4909 18.4323 38.1499 18.8111 37.9085 19.2798C37.6717 19.7438 37.5534 20.2481 37.5534 20.7926V22.0355C37.5534 22.7647 37.6812 23.3849 37.9369 23.8963C38.1973 24.4077 38.5595 24.7983 39.0235 25.0682C39.4875 25.3333 40.0297 25.4659 40.6499 25.4659C41.0524 25.4659 41.4194 25.4091 41.7508 25.2955C42.0822 25.1771 42.3687 25.0019 42.6102 24.7699C42.8516 24.5379 43.0363 24.2514 43.1641 23.9105L45.1741 24.2727C45.0131 24.8646 44.7243 25.383 44.3076 25.8281C43.8957 26.2685 43.3772 26.6117 42.7522 26.858C42.132 27.0994 41.4241 27.2202 40.6286 27.2202ZM51.2999 27.2415C50.6086 27.2415 49.9836 27.1136 49.4249 26.858C48.8662 26.5975 48.4235 26.2211 48.0968 25.7287C47.7748 25.2363 47.6138 24.6326 47.6138 23.9176C47.6138 23.3021 47.7322 22.7955 47.969 22.3977C48.2057 22 48.5253 21.6851 48.9278 21.4531C49.3302 21.2211 49.78 21.0459 50.2772 20.9276C50.7744 20.8092 51.281 20.7192 51.7971 20.6577C52.4505 20.5819 52.9808 20.5204 53.388 20.473C53.7952 20.4209 54.0911 20.3381 54.2758 20.2244C54.4604 20.1108 54.5528 19.9261 54.5528 19.6705V19.6207C54.5528 19.0005 54.3776 18.5199 54.0272 18.179C53.6816 17.8381 53.1655 17.6676 52.4789 17.6676C51.7639 17.6676 51.2005 17.8262 50.7886 18.1435C50.3814 18.456 50.0996 18.804 49.9434 19.1875L47.9477 18.733C48.1844 18.0701 48.53 17.535 48.9846 17.1278C49.4439 16.7159 49.9718 16.4176 50.5684 16.233C51.165 16.0436 51.7924 15.9489 52.4505 15.9489C52.8861 15.9489 53.3478 16.0009 53.8354 16.1051C54.3279 16.2045 54.7871 16.3892 55.2133 16.6591C55.6442 16.929 55.9969 17.3149 56.2715 17.8168C56.5461 18.3139 56.6835 18.9602 56.6835 19.7557V27H54.6096V25.5085H54.5244C54.3871 25.7831 54.1811 26.053 53.9065 26.3182C53.6318 26.5833 53.2791 26.8035 52.8482 26.9787C52.4174 27.1539 51.9013 27.2415 51.2999 27.2415ZM51.7616 25.5369C52.3487 25.5369 52.8506 25.4209 53.2673 25.1889C53.6887 24.9569 54.0083 24.6539 54.2261 24.2798C54.4486 23.901 54.5599 23.4962 54.5599 23.0653V21.6591C54.4841 21.7348 54.3373 21.8059 54.1195 21.8722C53.9065 21.9337 53.6626 21.9882 53.388 22.0355C53.1134 22.0781 52.8459 22.1184 52.5854 22.1562C52.325 22.1894 52.1072 22.2178 51.932 22.2415C51.5201 22.2936 51.1437 22.3812 50.8028 22.5043C50.4666 22.6274 50.1967 22.8049 49.9931 23.0369C49.7942 23.2642 49.6948 23.5672 49.6948 23.946C49.6948 24.4716 49.8889 24.8693 50.2772 25.1392C50.6655 25.4044 51.1603 25.5369 51.7616 25.5369ZM59.9719 27V16.0909H62.0245V17.8239H62.1381C62.337 17.2367 62.6874 16.7751 63.1893 16.4389C63.6959 16.098 64.2688 15.9276 64.908 15.9276C65.0406 15.9276 65.1968 15.9323 65.3768 15.9418C65.5614 15.9512 65.7058 15.9631 65.81 15.9773V18.0085C65.7248 17.9848 65.5733 17.9588 65.3555 17.9304C65.1377 17.8973 64.9198 17.8807 64.702 17.8807C64.2002 17.8807 63.7527 17.9872 63.3597 18.2003C62.9715 18.4086 62.6637 18.6998 62.4364 19.0739C62.2091 19.4432 62.0955 19.8646 62.0955 20.3381V27H59.9719ZM70.2313 20.5227V27H68.1077V16.0909H70.1461V17.8665H70.281C70.532 17.2888 70.9249 16.8248 71.46 16.4744C71.9998 16.1241 72.6792 15.9489 73.4983 15.9489C74.2417 15.9489 74.8928 16.1051 75.4515 16.4176C76.0102 16.7254 76.4434 17.1847 76.7512 17.7955C77.0589 18.4062 77.2128 19.1615 77.2128 20.0611V27H75.0892V20.3168C75.0892 19.526 74.8833 18.9081 74.4713 18.4631C74.0594 18.0133 73.4936 17.7884 72.7739 17.7884C72.2815 17.7884 71.8435 17.8949 71.46 18.108C71.0812 18.321 70.7805 18.6335 70.558 19.0455C70.3402 19.4527 70.2313 19.9451 70.2313 20.5227ZM86.4443 12.4545H89.1076L93.7383 23.7614H93.9087L98.5394 12.4545H101.203V27H99.1147V16.4744H98.9798L94.69 26.9787H92.957L88.6673 16.4673H88.5323V27H86.4443V12.4545ZM109.278 27.2202C108.255 27.2202 107.363 26.9858 106.601 26.517C105.838 26.0483 105.246 25.3925 104.825 24.5497C104.404 23.7069 104.193 22.7221 104.193 21.5952C104.193 20.4635 104.404 19.474 104.825 18.6264C105.246 17.7789 105.838 17.1207 106.601 16.652C107.363 16.1832 108.255 15.9489 109.278 15.9489C110.301 15.9489 111.193 16.1832 111.956 16.652C112.718 17.1207 113.31 17.7789 113.731 18.6264C114.153 19.474 114.363 20.4635 114.363 21.5952C114.363 22.7221 114.153 23.7069 113.731 24.5497C113.31 25.3925 112.718 26.0483 111.956 26.517C111.193 26.9858 110.301 27.2202 109.278 27.2202ZM109.285 25.4375C109.948 25.4375 110.497 25.2623 110.933 24.9119C111.369 24.5616 111.691 24.0952 111.899 23.5128C112.112 22.9304 112.219 22.2888 112.219 21.5881C112.219 20.892 112.112 20.2528 111.899 19.6705C111.691 19.0833 111.369 18.6122 110.933 18.2571C110.497 17.902 109.948 17.7244 109.285 17.7244C108.618 17.7244 108.064 17.902 107.623 18.2571C107.188 18.6122 106.863 19.0833 106.65 19.6705C106.442 20.2528 106.338 20.892 106.338 21.5881C106.338 22.2888 106.442 22.9304 106.65 23.5128C106.863 24.0952 107.188 24.5616 107.623 24.9119C108.064 25.2623 108.618 25.4375 109.285 25.4375ZM117.194 27V16.0909H119.246V17.8239H119.36C119.559 17.2367 119.909 16.7751 120.411 16.4389C120.918 16.098 121.491 15.9276 122.13 15.9276C122.262 15.9276 122.419 15.9323 122.599 15.9418C122.783 15.9512 122.928 15.9631 123.032 15.9773V18.0085C122.947 17.9848 122.795 17.9588 122.577 17.9304C122.36 17.8973 122.142 17.8807 121.924 17.8807C121.422 17.8807 120.975 17.9872 120.582 18.2003C120.193 18.4086 119.886 18.6998 119.658 19.0739C119.431 19.4432 119.317 19.8646 119.317 20.3381V27H117.194ZM129.641 27.2202C128.566 27.2202 127.64 26.9905 126.864 26.5312C126.092 26.0672 125.495 25.4162 125.074 24.5781C124.657 23.7353 124.449 22.7481 124.449 21.6165C124.449 20.4991 124.657 19.5142 125.074 18.6619C125.495 17.8097 126.082 17.1444 126.835 16.6662C127.593 16.188 128.478 15.9489 129.492 15.9489C130.107 15.9489 130.704 16.0507 131.281 16.2543C131.859 16.4579 132.377 16.7775 132.837 17.2131C133.296 17.6487 133.658 18.2145 133.923 18.9105C134.188 19.6018 134.321 20.4422 134.321 21.4318V22.1847H125.649V20.5938H132.24C132.24 20.035 132.126 19.5402 131.899 19.1094C131.672 18.6738 131.352 18.3305 130.94 18.0795C130.533 17.8286 130.055 17.7031 129.506 17.7031C128.909 17.7031 128.388 17.8499 127.943 18.1435C127.503 18.4323 127.162 18.8111 126.92 19.2798C126.684 19.7438 126.565 20.2481 126.565 20.7926V22.0355C126.565 22.7647 126.693 23.3849 126.949 23.8963C127.209 24.4077 127.572 24.7983 128.036 25.0682C128.5 25.3333 129.042 25.4659 129.662 25.4659C130.064 25.4659 130.431 25.4091 130.763 25.2955C131.094 25.1771 131.381 25.0019 131.622 24.7699C131.864 24.5379 132.048 24.2514 132.176 23.9105L134.186 24.2727C134.025 24.8646 133.736 25.383 133.32 25.8281C132.908 26.2685 132.389 26.6117 131.764 26.858C131.144 27.0994 130.436 27.2202 129.641 27.2202Z" fill="#3563E9"/>
<path d="M150.5 20H164.5" stroke="#3563E9" stroke-width="2" stroke-linecap="round" stroke-linejoin="round"/>
<path d="M157.5 13L164.5 20L157.5 27" stroke="#3563E9" stroke-width="2" stroke-linecap="round" stroke-linejoin="round"/>
</svg>
