<svg width="50" height="51" viewBox="0 0 50 51" fill="none" xmlns="http://www.w3.org/2000/svg">
<rect y="0.5" width="50" height="50" rx="25" fill="#F5F5F5"/>
<path d="M35 36.75V34.25C35 32.9239 34.4732 31.6521 33.5355 30.7145C32.5979 29.7768 31.3261 29.25 30 29.25H20C18.6739 29.25 17.4021 29.7768 16.4645 30.7145C15.5268 31.6521 15 32.9239 15 34.25V36.75" fill="#BDBDBD"/>
<path d="M25 24.25C27.7614 24.25 30 22.0114 30 19.25C30 16.4886 27.7614 14.25 25 14.25C22.2386 14.25 20 16.4886 20 19.25C20 22.0114 22.2386 24.25 25 24.25Z" fill="#BDBDBD"/>
</svg>
