<svg width="1440" height="735" viewBox="0 0 1440 735" fill="none" xmlns="http://www.w3.org/2000/svg">
<path fill-rule="evenodd" clip-rule="evenodd" d="M0 735C0 735 308.063 636.88 507.939 633.926C707.814 630.972 811.542 710.679 987.223 690.464C1162.9 670.249 1438.88 555.7 1438.88 555.7L1440 0H0V735Z" fill="#EFF3FD"/>
<mask id="mask0_148_2993" style="mask-type:alpha" maskUnits="userSpaceOnUse" x="3" y="0" width="1437" height="730">
<path fill-rule="evenodd" clip-rule="evenodd" d="M3.59106 729.693C3.59106 729.693 310.886 632.281 510.263 629.349C709.64 626.416 813.11 705.548 988.352 685.479C1163.59 665.41 1438.88 551.687 1438.88 551.687L1440 0H3.59106V729.693Z" fill="#E9F3FF"/>
</mask>
<g mask="url(#mask0_148_2993)">
<line y1="-0.5" x2="1800.42" y2="-0.5" transform="matrix(0.687662 -0.726031 0.687662 0.726031 108.649 1018.2)" stroke="#BECDF8"/>
<line y1="-0.5" x2="1800.42" y2="-0.5" transform="matrix(0.687662 -0.726031 0.687662 0.726031 -302.213 265.234)" stroke="#BECDF8"/>
<line y1="-0.5" x2="1800.42" y2="-0.5" transform="matrix(0.687662 -0.726031 0.687662 0.726031 138.879 1076.23)" stroke="#BECDF8"/>
<line y1="-0.5" x2="1800.42" y2="-0.5" transform="matrix(0.687662 -0.726031 0.687662 0.726031 -271.982 323.264)" stroke="#BECDF8"/>
<line y1="-0.5" x2="1800.42" y2="-0.5" transform="matrix(0.687662 -0.726031 0.687662 0.726031 169.11 1134.26)" stroke="#BECDF8"/>
<line y1="-0.5" x2="1800.42" y2="-0.5" transform="matrix(0.687662 -0.726031 0.687662 0.726031 -241.751 381.299)" stroke="#BECDF8"/>
<line y1="-0.5" x2="1800.42" y2="-0.5" transform="matrix(0.687662 -0.726031 0.687662 0.726031 199.341 1192.29)" stroke="#BECDF8"/>
<line y1="-0.5" x2="1800.42" y2="-0.5" transform="matrix(0.687662 -0.726031 0.687662 0.726031 -211.521 439.328)" stroke="#BECDF8"/>
<line y1="-0.5" x2="1800.42" y2="-0.5" transform="matrix(0.687662 -0.726031 0.687662 0.726031 229.571 1250.32)" stroke="#BECDF8"/>
<line y1="-0.5" x2="1800.42" y2="-0.5" transform="matrix(0.687662 -0.726031 0.687662 0.726031 -181.291 497.357)" stroke="#BECDF8"/>
<line y1="-0.5" x2="1800.42" y2="-0.5" transform="matrix(0.687662 -0.726031 0.687662 0.726031 259.802 1308.35)" stroke="#BECDF8"/>
<line y1="-0.5" x2="1800.42" y2="-0.5" transform="matrix(0.687662 -0.726031 0.687662 0.726031 -151.06 555.393)" stroke="#BECDF8"/>
<line y1="-0.5" x2="1800.42" y2="-0.5" transform="matrix(0.687662 -0.726031 0.687662 0.726031 290.033 1366.38)" stroke="#BECDF8"/>
<line y1="-0.5" x2="1800.42" y2="-0.5" transform="matrix(0.687662 -0.726031 0.687662 0.726031 -120.829 613.426)" stroke="#BECDF8"/>
<line y1="-0.5" x2="1800.42" y2="-0.5" transform="matrix(0.687662 -0.726031 0.687662 0.726031 320.264 1424.41)" stroke="#BECDF8"/>
<line y1="-0.5" x2="1800.42" y2="-0.5" transform="matrix(0.687662 -0.726031 0.687662 0.726031 -90.5989 671.456)" stroke="#BECDF8"/>
<line y1="-0.5" x2="1800.42" y2="-0.5" transform="matrix(0.687662 -0.726031 0.687662 0.726031 350.494 1482.44)" stroke="#BECDF8"/>
<line y1="-0.5" x2="1800.42" y2="-0.5" transform="matrix(0.687662 -0.726031 0.687662 0.726031 -60.3679 729.486)" stroke="#BECDF8"/>
<line y1="-0.5" x2="1800.42" y2="-0.5" transform="matrix(0.687662 -0.726031 0.687662 0.726031 380.725 1540.48)" stroke="#BECDF8"/>
<line y1="-0.5" x2="1800.42" y2="-0.5" transform="matrix(0.687662 -0.726031 0.687662 0.726031 -30.137 787.521)" stroke="#BECDF8"/>
<line y1="-0.5" x2="1800.42" y2="-0.5" transform="matrix(0.687662 -0.726031 0.687662 0.726031 410.956 1598.51)" stroke="#BECDF8"/>
<line y1="-0.5" x2="1800.42" y2="-0.5" transform="matrix(0.687662 -0.726031 0.687662 0.726031 441.187 1656.54)" stroke="#BECDF8"/>
<line y1="-0.5" x2="1800.42" y2="-0.5" transform="matrix(0.687662 -0.726031 0.687662 0.726031 1.46753 849.905)" stroke="#BECDF8"/>
<line y1="-0.5" x2="1800.42" y2="-0.5" transform="matrix(0.687662 -0.726031 0.687662 0.726031 471.417 1714.58)" stroke="#BECDF8"/>
<line y1="-0.5" x2="1800.42" y2="-0.5" transform="matrix(0.687662 -0.726031 0.687662 0.726031 31.6975 907.935)" stroke="#BECDF8"/>
<line y1="-0.5" x2="1800.42" y2="-0.5" transform="matrix(0.687662 -0.726031 0.687662 0.726031 501.647 1772.61)" stroke="#BECDF8"/>
<line y1="-0.5" x2="1800.42" y2="-0.5" transform="matrix(0.687662 -0.726031 0.687662 0.726031 61.9285 965.969)" stroke="#BECDF8"/>
</g>
</svg>
