 <svg width="60" height="60" viewBox="0 0 60 60" fill="none" xmlns="http://www.w3.org/2000/svg">
<rect width="60" height="60" rx="30" fill="#EFF3FD"/>
<path d="M29.6193 38.2386C28.483 38.2386 27.4659 38.0256 26.5682 37.5994C25.6705 37.1676 24.9574 36.5767 24.429 35.8267C23.9063 35.0767 23.6278 34.2187 23.5938 33.2528H26.6619C26.7188 33.9687 27.0284 34.554 27.5909 35.0085C28.1534 35.4574 28.8295 35.6818 29.6193 35.6818C30.2386 35.6818 30.7898 35.5398 31.2727 35.2557C31.7557 34.9716 32.1364 34.5767 32.4148 34.071C32.6932 33.5653 32.8295 32.9886 32.8239 32.3409C32.8295 31.6818 32.6903 31.0966 32.4062 30.5852C32.1222 30.0739 31.733 29.6733 31.2386 29.3835C30.7443 29.0881 30.1761 28.9403 29.5341 28.9403C29.0114 28.9347 28.4972 29.0312 27.9915 29.2301C27.4858 29.429 27.0852 29.6903 26.7898 30.0142L23.9347 29.5455L24.8466 20.5455H34.9716V23.1875H27.4631L26.9602 27.8153H27.0625C27.3864 27.4347 27.8438 27.1193 28.4347 26.8693C29.0256 26.6136 29.6733 26.4858 30.3778 26.4858C31.4347 26.4858 32.3778 26.7358 33.2074 27.2358C34.0369 27.7301 34.6903 28.4119 35.1676 29.2812C35.6449 30.1506 35.8835 31.1449 35.8835 32.2642C35.8835 33.4176 35.6165 34.446 35.0824 35.3494C34.554 36.2472 33.8182 36.9545 32.875 37.4716C31.9375 37.983 30.8523 38.2386 29.6193 38.2386Z" fill="#2851E3"/>
</svg>
