<?xml version="1.0" encoding="UTF-8" standalone="no"?><!DOCTYPE svg PUBLIC "-//W3C//DTD SVG 1.1//EN" "http://www.w3.org/Graphics/SVG/1.1/DTD/svg11.dtd"><svg width="100%" height="100%" viewBox="0 0 6362 6301" version="1.1" xmlns="http://www.w3.org/2000/svg" xmlns:xlink="http://www.w3.org/1999/xlink" xml:space="preserve" xmlns:serif="http://www.serif.com/" style="fill-rule:evenodd;clip-rule:evenodd;stroke-linejoin:round;stroke-miterlimit:2;"><rect id="Homepage-final" serif:id="Homepage final" x="-1117.53" y="-1421.68" width="10426.7" height="9204.1" style="fill:none;"/><g><g transform="matrix(1,0,0,0.962208,0,-190.692)"><text x="140.319px" y="1942.06px" style="font-family:'VampiroOne-Regular', 'Vampiro One';font-size:277.14px;fill:#cb0000;stroke:#000;stroke-width:14.86px;">Projects</text></g><g transform="matrix(1,0,0,0.962208,5.68434e-14,-246.635)"><text x="2580.91px" y="461.779px" style="font-family:'VampiroOne-Regular', 'Vampiro One';font-size:277.14px;fill:#cb0000;stroke:#000;stroke-width:14.86px;">About Me</text></g><g transform="matrix(1,0,0,1,-1560.98,-10481)"><g transform="matrix(1.03213,0,0,1,-134.315,0)"><text x="4180.87px" y="13130px" style="font-family:'CevicheOne-Regular', 'Ceviche One';font-size:300px;fill:#870000;">Hi!  I&apos;m Ned.</text></g><g transform="matrix(1.03213,0,0,1,-91.7692,0)"><text x="2856.53px" y="13430px" style="font-family:'CevicheOne-Regular', 'Ceviche One';font-size:300px;fill:#870000;">I&apos;m a web designer who l<tspan x="5411.06px " y="13430px ">o</tspan>ves to help</text></g><g transform="matrix(1.03213,0,0,1,-95.1005,0)"><text x="2960.22px" y="13730px" style="font-family:'CevicheOne-Regular', 'Ceviche One';font-size:300px;fill:#870000;">cli<tspan x="3216.76px 3337.96px 3470.93px " y="13730px 13730px 13730px ">ent</tspan>s bring their projects to life.</text></g><g transform="matrix(1.03213,0,0,1,-87.4212,0)"><text x="2721.19px" y="14330px" style="font-family:'CevicheOne-Regular', 'Ceviche One';font-size:300px;fill:#870000;">Cli<tspan x="3003.52px " y="14330px ">c</tspan>k on one of the link<tspan x="5075.68px " y="14330px ">s</tspan> to get started!</text></g></g><g transform="matrix(1,0,0,0.962208,0,-79.2662)"><text x="21.703px" y="4890.44px" style="font-family:'VampiroOne-Regular', 'Vampiro One';font-size:277.14px;fill:#cb0000;stroke:#000;stroke-width:14.86px;">Codepens</text></g><g transform="matrix(1,0,0,0.962208,0,-190.692)"><text x="5241.54px" y="1942.06px" style="font-family:'VampiroOne-Regular', 'Vampiro One';font-size:277.14px;fill:#cb0000;stroke:#000;stroke-width:14.86px;">Résumé</text></g><g transform="matrix(1,0,0,0.962208,0,-78.8429)"><text x="5450.74px" y="4901.64px" style="font-family:'VampiroOne-Regular', 'Vampiro One';font-size:277.14px;fill:#cb0000;stroke:#000;stroke-width:14.86px;">Blog</text></g><g transform="matrix(0.74908,0,0,0.743926,-190.971,-707.157)"><g transform="matrix(1.03213,0,0,1,-120.139,0)"><text x="3739.59px" y="9038.21px" style="font-family:'VampiroOne-Regular', 'Vampiro One';font-size:358.458px;fill:#cb0000;stroke:#000;stroke-width:19.22px;">External</text></g><g transform="matrix(1.03213,0,0,1,-131.371,0)"><text x="4089.22px" y="9396.67px" style="font-family:'VampiroOne-Regular', 'Vampiro One';font-size:358.458px;fill:#cb0000;stroke:#000;stroke-width:19.22px;">Links</text></g></g></g></svg>