<svg width="230" height="44" viewBox="0 0 230 44" fill="none" xmlns="http://www.w3.org/2000/svg">
<rect width="230" height="44" fill="#3563E9"/>
<path d="M44.3475 19.5398C44.2376 19.1951 44.0899 18.8864 43.9043 18.6136C43.7225 18.3371 43.5047 18.1023 43.2509 17.9091C42.9971 17.7121 42.7073 17.5625 42.3816 17.4602C42.0596 17.358 41.7054 17.3068 41.3191 17.3068C40.6638 17.3068 40.0728 17.4754 39.5463 17.8125C39.0198 18.1496 38.6032 18.6439 38.2963 19.2955C37.9933 19.9432 37.8418 20.7367 37.8418 21.6761C37.8418 22.6193 37.9952 23.4167 38.302 24.0682C38.6088 24.7197 39.0293 25.214 39.5634 25.5511C40.0975 25.8883 40.7054 26.0568 41.3872 26.0568C42.0198 26.0568 42.571 25.928 43.0407 25.6705C43.5141 25.4129 43.8797 25.0492 44.1372 24.5795C44.3986 24.1061 44.5293 23.5492 44.5293 22.9091L44.9838 22.9943H41.6543V21.5455H46.2282V22.8693C46.2282 23.8466 46.0198 24.6951 45.6032 25.4148C45.1903 26.1307 44.6183 26.6837 43.8872 27.0739C43.16 27.464 42.3266 27.6591 41.3872 27.6591C40.3342 27.6591 39.41 27.4167 38.6145 26.9318C37.8228 26.447 37.2054 25.7595 36.7622 24.8693C36.3191 23.9754 36.0975 22.9148 36.0975 21.6875C36.0975 20.7595 36.2263 19.9261 36.4838 19.1875C36.7414 18.4489 37.1032 17.822 37.5691 17.3068C38.0388 16.7879 38.5899 16.392 39.2225 16.1193C39.8588 15.8428 40.5539 15.7045 41.3077 15.7045C41.9365 15.7045 42.5217 15.7973 43.0634 15.983C43.6088 16.1686 44.0937 16.4318 44.5179 16.7727C44.946 17.1136 45.3001 17.5189 45.5804 17.9886C45.8607 18.4545 46.0501 18.9716 46.1486 19.5398H44.3475ZM52.5418 27.6761C51.682 27.6761 50.9415 27.4924 50.3203 27.125C49.7028 26.7538 49.2256 26.233 48.8884 25.5625C48.5551 24.8883 48.3884 24.0985 48.3884 23.1932C48.3884 22.2992 48.5551 21.5114 48.8884 20.8295C49.2256 20.1477 49.6953 19.6155 50.2975 19.233C50.9036 18.8504 51.6119 18.6591 52.4225 18.6591C52.915 18.6591 53.3922 18.7405 53.8543 18.9034C54.3165 19.0663 54.7312 19.322 55.0987 19.6705C55.4661 20.0189 55.7559 20.4716 55.968 21.0284C56.1801 21.5814 56.2862 22.2538 56.2862 23.0455V23.6477H49.3487V22.375H54.6214C54.6214 21.928 54.5305 21.5322 54.3487 21.1875C54.1668 20.839 53.9112 20.5644 53.5816 20.3636C53.2559 20.1629 52.8733 20.0625 52.4339 20.0625C51.9566 20.0625 51.54 20.1799 51.1839 20.4148C50.8316 20.6458 50.5589 20.9489 50.3657 21.3239C50.1763 21.6951 50.0816 22.0985 50.0816 22.5341V23.5284C50.0816 24.1117 50.1839 24.608 50.3884 25.017C50.5968 25.4261 50.8865 25.7386 51.2578 25.9545C51.629 26.1667 52.0627 26.2727 52.5589 26.2727C52.8809 26.2727 53.1744 26.2273 53.4396 26.1364C53.7047 26.0417 53.9339 25.9015 54.1271 25.7159C54.3203 25.5303 54.468 25.3011 54.5703 25.0284L56.1782 25.3182C56.0494 25.7917 55.8184 26.2064 55.485 26.5625C55.1555 26.9148 54.7407 27.1894 54.2407 27.3864C53.7445 27.5795 53.1782 27.6761 52.5418 27.6761ZM62.705 18.7727V20.1364H57.9379V18.7727H62.705ZM59.2163 16.6818H60.9152V24.9375C60.9152 25.267 60.9644 25.5152 61.0629 25.6818C61.1614 25.8447 61.2883 25.9564 61.4436 26.017C61.6027 26.0739 61.775 26.1023 61.9607 26.1023C62.097 26.1023 62.2163 26.0928 62.3186 26.0739C62.4209 26.0549 62.5004 26.0398 62.5572 26.0284L62.8641 27.4318C62.7656 27.4697 62.6254 27.5076 62.4436 27.5455C62.2618 27.5871 62.0345 27.6098 61.7618 27.6136C61.3148 27.6212 60.8982 27.5417 60.5118 27.375C60.1254 27.2083 59.8129 26.9508 59.5743 26.6023C59.3357 26.2538 59.2163 25.8163 59.2163 25.2898V16.6818ZM73.892 18.7727V20.1364H68.9602V18.7727H73.892ZM70.3125 27.5V17.7614C70.3125 17.2159 70.4318 16.7633 70.6704 16.4034C70.9091 16.0398 71.2253 15.7689 71.6193 15.5909C72.0132 15.4091 72.4413 15.3182 72.9034 15.3182C73.2443 15.3182 73.536 15.3466 73.7784 15.4034C74.0208 15.4564 74.2007 15.5057 74.3182 15.5511L73.9204 16.9261C73.8409 16.9034 73.7386 16.8769 73.6136 16.8466C73.4886 16.8125 73.3371 16.7955 73.1591 16.7955C72.7462 16.7955 72.4507 16.8977 72.2727 17.1023C72.0985 17.3068 72.0113 17.6023 72.0113 17.9886V27.5H70.3125ZM76.1049 27.5V18.7727H77.7469V20.1591H77.8378C77.9969 19.6894 78.2772 19.3201 78.6787 19.0511C79.084 18.7784 79.5424 18.642 80.0537 18.642C80.1598 18.642 80.2848 18.6458 80.4287 18.6534C80.5764 18.661 80.692 18.6705 80.7753 18.6818V20.3068C80.7071 20.2879 80.5859 20.267 80.4117 20.2443C80.2374 20.2178 80.0632 20.2045 79.8889 20.2045C79.4874 20.2045 79.1295 20.2898 78.8151 20.4602C78.5045 20.6269 78.2583 20.8598 78.0764 21.1591C77.8946 21.4545 77.8037 21.7917 77.8037 22.1705V27.5H76.1049ZM86.1543 27.6761C85.2945 27.6761 84.554 27.4924 83.9328 27.125C83.3153 26.7538 82.8381 26.233 82.5009 25.5625C82.1676 24.8883 82.0009 24.0985 82.0009 23.1932C82.0009 22.2992 82.1676 21.5114 82.5009 20.8295C82.8381 20.1477 83.3078 19.6155 83.91 19.233C84.5161 18.8504 85.2244 18.6591 86.035 18.6591C86.5274 18.6591 87.0047 18.7405 87.4668 18.9034C87.929 19.0663 88.3437 19.322 88.7112 19.6705C89.0786 20.0189 89.3684 20.4716 89.5805 21.0284C89.7926 21.5814 89.8987 22.2538 89.8987 23.0455V23.6477H82.9612V22.375H88.2339C88.2339 21.928 88.143 21.5322 87.9612 21.1875C87.7793 20.839 87.5237 20.5644 87.1941 20.3636C86.8684 20.1629 86.4858 20.0625 86.0464 20.0625C85.5691 20.0625 85.1524 20.1799 84.7964 20.4148C84.4441 20.6458 84.1714 20.9489 83.9782 21.3239C83.7888 21.6951 83.6941 22.0985 83.6941 22.5341V23.5284C83.6941 24.1117 83.7964 24.608 84.0009 25.017C84.2093 25.4261 84.499 25.7386 84.8703 25.9545C85.2415 26.1667 85.6752 26.2727 86.1714 26.2727C86.4934 26.2727 86.7869 26.2273 87.0521 26.1364C87.3172 26.0417 87.5464 25.9015 87.7396 25.7159C87.9328 25.5303 88.0805 25.3011 88.1828 25.0284L89.7907 25.3182C89.6619 25.7917 89.4309 26.2064 89.0975 26.5625C88.768 26.9148 88.3532 27.1894 87.8532 27.3864C87.357 27.5795 86.7907 27.6761 86.1543 27.6761ZM96.005 27.6761C95.1451 27.6761 94.4046 27.4924 93.7834 27.125C93.166 26.7538 92.6887 26.233 92.3516 25.5625C92.0182 24.8883 91.8516 24.0985 91.8516 23.1932C91.8516 22.2992 92.0182 21.5114 92.3516 20.8295C92.6887 20.1477 93.1584 19.6155 93.7607 19.233C94.3667 18.8504 95.075 18.6591 95.8857 18.6591C96.3781 18.6591 96.8554 18.7405 97.3175 18.9034C97.7796 19.0663 98.1944 19.322 98.5618 19.6705C98.9292 20.0189 99.219 20.4716 99.4311 21.0284C99.6432 21.5814 99.7493 22.2538 99.7493 23.0455V23.6477H92.8118V22.375H98.0845C98.0845 21.928 97.9936 21.5322 97.8118 21.1875C97.63 20.839 97.3743 20.5644 97.0447 20.3636C96.719 20.1629 96.3364 20.0625 95.897 20.0625C95.4197 20.0625 95.0031 20.1799 94.647 20.4148C94.2947 20.6458 94.022 20.9489 93.8288 21.3239C93.6394 21.6951 93.5447 22.0985 93.5447 22.5341V23.5284C93.5447 24.1117 93.647 24.608 93.8516 25.017C94.0599 25.4261 94.3497 25.7386 94.7209 25.9545C95.0921 26.1667 95.5258 26.2727 96.022 26.2727C96.344 26.2727 96.6375 26.2273 96.9027 26.1364C97.1679 26.0417 97.397 25.9015 97.5902 25.7159C97.7834 25.5303 97.9311 25.3011 98.0334 25.0284L99.6413 25.3182C99.5125 25.7917 99.2815 26.2064 98.9482 26.5625C98.6186 26.9148 98.2038 27.1894 97.7038 27.3864C97.2076 27.5795 96.6413 27.6761 96.005 27.6761ZM112.681 30.7727V26.142H112.578C112.476 26.3277 112.328 26.5398 112.135 26.7784C111.946 27.017 111.684 27.2254 111.351 27.4034C111.018 27.5814 110.586 27.6705 110.056 27.6705C109.351 27.6705 108.722 27.4905 108.169 27.1307C107.62 26.767 107.188 26.25 106.874 25.5795C106.563 24.9053 106.408 24.0966 106.408 23.1534C106.408 22.2102 106.565 21.4034 106.88 20.733C107.198 20.0625 107.633 19.5492 108.186 19.1932C108.739 18.8371 109.366 18.6591 110.067 18.6591C110.609 18.6591 111.044 18.75 111.374 18.9318C111.707 19.1098 111.965 19.3182 112.147 19.5568C112.332 19.7955 112.476 20.0057 112.578 20.1875H112.72V18.7727H114.38V30.7727H112.681ZM110.431 26.2216C110.919 26.2216 111.332 26.0928 111.669 25.8352C112.01 25.5739 112.268 25.2121 112.442 24.75C112.62 24.2879 112.709 23.75 112.709 23.1364C112.709 22.5303 112.622 22 112.448 21.5455C112.273 21.0909 112.018 20.7367 111.681 20.483C111.344 20.2292 110.927 20.1023 110.431 20.1023C109.919 20.1023 109.493 20.2348 109.152 20.5C108.811 20.7652 108.554 21.1269 108.38 21.5852C108.209 22.0436 108.124 22.5606 108.124 23.1364C108.124 23.7197 108.211 24.2443 108.385 24.7102C108.559 25.1761 108.817 25.5455 109.158 25.8182C109.503 26.0871 109.927 26.2216 110.431 26.2216ZM122.652 23.8807V18.7727H124.357V27.5H122.686V25.9886H122.595C122.394 26.4545 122.072 26.8428 121.629 27.1534C121.19 27.4602 120.643 27.6136 119.987 27.6136C119.427 27.6136 118.93 27.4905 118.499 27.2443C118.071 26.9943 117.733 26.625 117.487 26.1364C117.245 25.6477 117.124 25.0436 117.124 24.3239V18.7727H118.822V24.1193C118.822 24.714 118.987 25.1875 119.317 25.5398C119.646 25.892 120.074 26.0682 120.601 26.0682C120.919 26.0682 121.235 25.9886 121.55 25.8295C121.868 25.6705 122.131 25.4299 122.34 25.108C122.552 24.786 122.656 24.3769 122.652 23.8807ZM130.775 27.6761C129.957 27.6761 129.243 27.4886 128.633 27.1136C128.023 26.7386 127.55 26.214 127.213 25.5398C126.876 24.8655 126.707 24.0777 126.707 23.1761C126.707 22.2708 126.876 21.4792 127.213 20.8011C127.55 20.1231 128.023 19.5966 128.633 19.2216C129.243 18.8466 129.957 18.6591 130.775 18.6591C131.594 18.6591 132.308 18.8466 132.917 19.2216C133.527 19.5966 134.001 20.1231 134.338 20.8011C134.675 21.4792 134.844 22.2708 134.844 23.1761C134.844 24.0777 134.675 24.8655 134.338 25.5398C134.001 26.214 133.527 26.7386 132.917 27.1136C132.308 27.4886 131.594 27.6761 130.775 27.6761ZM130.781 26.25C131.311 26.25 131.751 26.1098 132.099 25.8295C132.448 25.5492 132.705 25.1761 132.872 24.7102C133.042 24.2443 133.128 23.7311 133.128 23.1705C133.128 22.6136 133.042 22.1023 132.872 21.6364C132.705 21.1667 132.448 20.7898 132.099 20.5057C131.751 20.2216 131.311 20.0795 130.781 20.0795C130.247 20.0795 129.804 20.2216 129.452 20.5057C129.103 20.7898 128.844 21.1667 128.673 21.6364C128.506 22.1023 128.423 22.6136 128.423 23.1705C128.423 23.7311 128.506 24.2443 128.673 24.7102C128.844 25.1761 129.103 25.5492 129.452 25.8295C129.804 26.1098 130.247 26.25 130.781 26.25ZM141.274 18.7727V20.1364H136.507V18.7727H141.274ZM137.785 16.6818H139.484V24.9375C139.484 25.267 139.533 25.5152 139.632 25.6818C139.73 25.8447 139.857 25.9564 140.012 26.017C140.171 26.0739 140.344 26.1023 140.529 26.1023C140.666 26.1023 140.785 26.0928 140.887 26.0739C140.99 26.0549 141.069 26.0398 141.126 26.0284L141.433 27.4318C141.334 27.4697 141.194 27.5076 141.012 27.5455C140.831 27.5871 140.603 27.6098 140.331 27.6136C139.884 27.6212 139.467 27.5417 139.081 27.375C138.694 27.2083 138.382 26.9508 138.143 26.6023C137.904 26.2538 137.785 25.8163 137.785 25.2898V16.6818ZM147.281 27.6761C146.421 27.6761 145.68 27.4924 145.059 27.125C144.442 26.7538 143.964 26.233 143.627 25.5625C143.294 24.8883 143.127 24.0985 143.127 23.1932C143.127 22.2992 143.294 21.5114 143.627 20.8295C143.964 20.1477 144.434 19.6155 145.036 19.233C145.642 18.8504 146.351 18.6591 147.161 18.6591C147.654 18.6591 148.131 18.7405 148.593 18.9034C149.055 19.0663 149.47 19.322 149.837 19.6705C150.205 20.0189 150.495 20.4716 150.707 21.0284C150.919 21.5814 151.025 22.2538 151.025 23.0455V23.6477H144.087V22.375H149.36C149.36 21.928 149.269 21.5322 149.087 21.1875C148.906 20.839 148.65 20.5644 148.32 20.3636C147.995 20.1629 147.612 20.0625 147.173 20.0625C146.695 20.0625 146.279 20.1799 145.923 20.4148C145.57 20.6458 145.298 20.9489 145.104 21.3239C144.915 21.6951 144.82 22.0985 144.82 22.5341V23.5284C144.82 24.1117 144.923 24.608 145.127 25.017C145.336 25.4261 145.625 25.7386 145.997 25.9545C146.368 26.1667 146.801 26.2727 147.298 26.2727C147.62 26.2727 147.913 26.2273 148.178 26.1364C148.443 26.0417 148.673 25.9015 148.866 25.7159C149.059 25.5303 149.207 25.3011 149.309 25.0284L150.917 25.3182C150.788 25.7917 150.557 26.2064 150.224 26.5625C149.894 26.9148 149.479 27.1894 148.979 27.3864C148.483 27.5795 147.917 27.6761 147.281 27.6761ZM159.91 20.9034L158.37 21.1761C158.305 20.9792 158.203 20.7917 158.063 20.6136C157.927 20.4356 157.741 20.2898 157.506 20.1761C157.271 20.0625 156.978 20.0057 156.626 20.0057C156.144 20.0057 155.743 20.1136 155.421 20.3295C155.099 20.5417 154.938 20.8163 154.938 21.1534C154.938 21.4451 155.046 21.6799 155.262 21.858C155.478 22.036 155.826 22.1818 156.307 22.2955L157.694 22.6136C158.497 22.7992 159.095 23.0852 159.489 23.4716C159.883 23.858 160.08 24.3598 160.08 24.9773C160.08 25.5 159.929 25.9659 159.626 26.375C159.326 26.7803 158.908 27.0985 158.37 27.3295C157.836 27.5606 157.216 27.6761 156.512 27.6761C155.535 27.6761 154.737 27.4678 154.12 27.0511C153.502 26.6307 153.124 26.0341 152.983 25.2614L154.626 25.0114C154.728 25.4394 154.938 25.7633 155.256 25.983C155.574 26.1989 155.989 26.3068 156.501 26.3068C157.057 26.3068 157.502 26.1913 157.836 25.9602C158.169 25.7254 158.336 25.4394 158.336 25.1023C158.336 24.8295 158.233 24.6004 158.029 24.4148C157.828 24.2292 157.519 24.089 157.103 23.9943L155.626 23.6705C154.811 23.4848 154.209 23.1894 153.819 22.7841C153.432 22.3788 153.239 21.8655 153.239 21.2443C153.239 20.7292 153.383 20.2784 153.671 19.892C153.959 19.5057 154.357 19.2045 154.864 18.9886C155.372 18.7689 155.953 18.6591 156.608 18.6591C157.552 18.6591 158.294 18.8636 158.836 19.2727C159.377 19.678 159.735 20.2216 159.91 20.9034Z" fill="white"/>
<path d="M180 28L186 22L180 16" stroke="white" stroke-width="2" stroke-linecap="round" stroke-linejoin="round"/>
</svg>
