<svg width="60" height="60" viewBox="0 0 60 60" fill="none" xmlns="http://www.w3.org/2000/svg">
<rect width="60" height="60" rx="30" fill="#EFF3FD"/>
<path d="M43.1752 23.025C43.0267 22.4318 42.7243 21.8882 42.2985 21.4493C41.8728 21.0103 41.3387 20.6915 40.7502 20.525C38.6002 20 30.0002 20 30.0002 20C30.0002 20 21.4002 20 19.2502 20.575C18.6618 20.7415 18.1277 21.0603 17.7019 21.4993C17.2761 21.9382 16.9737 22.4818 16.8252 23.075C16.4317 25.2569 16.2393 27.4704 16.2502 29.6875C16.2362 31.9213 16.4287 34.1516 16.8252 36.35C16.9889 36.9248 17.2981 37.4477 17.7229 37.8681C18.1477 38.2885 18.6738 38.5923 19.2502 38.75C21.4002 39.325 30.0002 39.325 30.0002 39.325C30.0002 39.325 38.6002 39.325 40.7502 38.75C41.3387 38.5835 41.8728 38.2647 42.2985 37.8257C42.7243 37.3868 43.0267 36.8432 43.1752 36.25C43.5657 34.0845 43.7581 31.8879 43.7502 29.6875C43.7643 27.4537 43.5718 25.2234 43.1752 23.025V23.025Z" stroke="#2851E3" stroke-width="2" stroke-linecap="round" stroke-linejoin="round"/>
<path d="M27.1875 33.7751L34.375 29.6876L27.1875 25.6001V33.7751Z" stroke="#2851E3" stroke-width="2" stroke-linecap="round" stroke-linejoin="round"/>
</svg>
