<?xml version="1.0" encoding="UTF-8" standalone="no"?><!DOCTYPE svg PUBLIC "-//W3C//DTD SVG 1.1//EN" "http://www.w3.org/Graphics/SVG/1.1/DTD/svg11.dtd"><svg width="100%" height="100%" viewBox="0 0 369 783" version="1.1" xmlns="http://www.w3.org/2000/svg" xmlns:xlink="http://www.w3.org/1999/xlink" xml:space="preserve" xmlns:serif="http://www.serif.com/" style="fill-rule:evenodd;clip-rule:evenodd;stroke-linejoin:round;stroke-miterlimit:2;"><rect id="Artboard1" x="-1032.21" y="-1698.21" width="3507.87" height="2480.32" style="fill:none;"/><g id="Artboard11" serif:id="Artboard1"><rect x="-1032.21" y="-1698.21" width="3507.87" height="2480.32" style="fill:#ff8200;"/><g><g><rect x="-0" y="164.397" width="368.963" height="617.707" style="fill:#056c00;"/><circle cx="184.481" cy="184.481" r="184.481" style="fill:#056c00;"/></g><circle cx="184.481" cy="184.481" r="77.35" style="fill:#fff;"/><circle cx="184.481" cy="184.481" r="43.785" style="fill:#b0150c;"/><path d="M107.131,184.481c0,42.691 34.66,77.35 77.35,77.35c42.691,0 77.35,-34.659 77.35,-77.35c-12.891,21.346 -43.113,38.675 -77.35,38.675c-34.237,0 -64.458,-17.329 -77.35,-38.675Z" style="fill:#056c00;"/><circle cx="184.481" cy="184.481" r="15.098"/><path d="M261.831,184.481c0,-42.69 -34.659,-77.35 -77.35,-77.35c-42.69,0 -77.35,34.66 -77.35,77.35c12.892,-21.345 43.113,-38.675 77.35,-38.675c34.237,0 64.459,17.33 77.35,38.675Z" style="fill:#056c00;"/></g></g></svg>