<svg width="100%" height="100%" viewBox="0 0 1446 715" version="1.1" xmlns="http://www.w3.org/2000/svg" xmlns:xlink="http://www.w3.org/1999/xlink" xml:space="preserve" xmlns:serif="http://www.serif.com/" style="fill-rule:evenodd;clip-rule:evenodd;stroke-linecap:round;stroke-linejoin:round;stroke-miterlimit:1.5;"><g><path d="M86.471,22.602c-0.16,-0.999 -0.241,-2.01 -0.241,-3.022c0,-10.53 8.55,-19.08 19.08,-19.08c10.531,0 19.08,8.55 19.08,19.08c0,1.012 -0.08,2.023 -0.241,3.022l-8.841,55.118c-0.827,5.157 1.615,10.29 6.138,12.901c4.524,2.612 10.19,2.16 14.242,-1.135l43.313,-35.215c0.785,-0.639 1.62,-1.214 2.497,-1.72c9.12,-5.265 20.798,-2.136 26.064,6.984c5.265,9.12 2.136,20.799 -6.984,26.064c-0.877,0.506 -1.792,0.941 -2.738,1.302l-52.153,19.902c-4.88,1.863 -8.104,6.544 -8.104,11.767c-0,5.223 3.224,9.904 8.104,11.766l52.153,19.903c0.946,0.361 1.861,0.796 2.738,1.302c9.12,5.265 12.249,16.944 6.984,26.064c-5.266,9.12 -16.944,12.249 -26.064,6.984c-0.877,-0.506 -1.712,-1.081 -2.497,-1.72l-43.313,-35.215c-4.052,-3.295 -9.718,-3.747 -14.242,-1.135c-4.523,2.611 -6.965,7.744 -6.138,12.901l8.841,55.118c0.161,0.999 0.241,2.01 0.241,3.022c0,10.53 -8.549,19.08 -19.08,19.08c-10.53,-0 -19.08,-8.55 -19.08,-19.08c0,-1.012 0.081,-2.023 0.241,-3.022l8.841,-55.118c0.827,-5.157 -1.615,-10.29 -6.138,-12.901c-4.523,-2.612 -10.189,-2.16 -14.242,1.135l-43.313,35.215c-0.785,0.639 -1.62,1.214 -2.497,1.72c-9.119,5.265 -20.798,2.136 -26.063,-6.984c-5.266,-9.12 -2.136,-20.799 6.983,-26.064c0.877,-0.506 1.792,-0.941 2.738,-1.302l52.154,-19.903c4.88,-1.862 8.104,-6.543 8.104,-11.766c-0,-5.223 -3.224,-9.904 -8.104,-11.767l-52.154,-19.902c-0.946,-0.361 -1.861,-0.796 -2.738,-1.302c-9.119,-5.265 -12.249,-16.944 -6.983,-26.064c5.265,-9.12 16.944,-12.249 26.063,-6.984c0.877,0.506 1.712,1.081 2.497,1.72l43.313,35.215c4.053,3.295 9.719,3.747 14.242,1.135c4.523,-2.611 6.965,-7.744 6.138,-12.901l-8.841,-55.118Z" style="fill:#811e18;stroke:#000;stroke-width:1px;"/><path d="M104.227,354.71c0,-0 438.186,600.91 1334.7,236.14" style="fill:none;stroke:#811e18;stroke-width:12.5px;"/></g></svg>