
<svg

	width="100%" height="100%" viewBox="0 0 6262 6286" version="1.1" xmlns="http://www.w3.org/2000/svg" xmlns:xlink="http://www.w3.org/1999/xlink" xml:space="preserve" xmlns:serif="http://www.serif.com/" style="fill-rule:evenodd;clip-rule:evenodd;stroke-linejoin:round;stroke-miterlimit:2;">

	<rect id="Homepage-final" serif:id="Homepage final" x="-1118.53" y="-762.779" width="10426.7" height="9204.1" style="fill:none;"/>

	<g transform="matrix(1,0,0,1,-1652.58,-10665.1)">

		<g transform="matrix(1.03213,0,0,1,-134.315,0)">
			<text x="4180.87px" y="13130px" style="font-family:'CevicheOne-Regular', 'Ceviche One';font-size:300px;fill:#870000;">Hi!  I&apos;m Ned.</text>
		</g>

		<g transform="matrix(1.03213,0,0,1,-103.975,0)">
			<text x="3236.47px" y="13430px" style="font-family:'CevicheOne-Regular', 'Ceviche One';font-size:300px;fill:#870000;">I&apos;m a web designer who helps</text>
		</g>

		<g transform="matrix(1.03213,0,0,1,-95.1005,0)">
			<text x="2960.22px" y="13730px" style="font-family:'CevicheOne-Regular', 'Ceviche One';font-size:300px;fill:#870000;">cli<tspan x="3216.76px 3337.96px 3470.93px " y="13730px 13730px 13730px ">ent</tspan>s bring their projects to life.</text>
		</g>
		
		<g transform="matrix(1.03213,0,0,1,-87.4212,0)"><text x="2721.19px" y="14330px" style="font-family:'CevicheOne-Regular', 'Ceviche One';font-size:300px;fill:#870000;">Cli<tspan x="3003.52px " y="14330px ">c</tspan>k on one of the link<tspan x="5075.68px " y="14330px ">s</tspan> to get started!</text>
		</g>

	</g>

	<g transform="matrix(0.984196,-0.177085,5.23348e-17,0.977659,-43.2794,-573.72)"><text x="184.411px" y="3013.86px" style="font-family:'VampiroOne-Regular', 'Vampiro One';font-size:277.14px;fill:#cb0000;stroke:#000;stroke-width:16.26px;">Projects</text></g>


	<g transform="matrix(0.984196,-0.177085,5.23348e-17,0.977659,-4.3271,-180.777)"><text x="2585.42px" y="1066.34px" style="font-family:'VampiroOne-Regular', 'Vampiro One';font-size:277.14px;fill:#cb0000;stroke:#000;stroke-width:16.26px;">About Me</text></g>


	<g transform="matrix(0.984196,-0.177085,1.57004e-16,0.977659,-44.1723,-516.57)"><text x="66.702px" y="6019.74px" style="font-family:'VampiroOne-Regular', 'Vampiro One';font-size:277.14px;fill:#cb0000;stroke:#000;stroke-width:16.26px;">Codepens</text>
	</g>

	<g transform="matrix(0.984196,-0.177085,1.57004e-16,0.977659,-4.41641,-81.2252)"><text x="2701.91px" y="5567.13px" style="font-family:'VampiroOne-Regular', 'Vampiro One';font-size:277.14px;fill:#cb0000;stroke:#000;stroke-width:16.26px;">Contact</text>
	</g>

	<g transform="matrix(0.984196,-0.177085,1.57004e-16,0.977659,35.1315,284.914)"><text x="5205.96px" y="2121.17px" style="font-family:'VampiroOne-Regular', 'Vampiro One';font-size:277.14px;fill:#cb0000;stroke:#000;stroke-width:16.26px;">Résumé</text>
	</g>

	<g transform="matrix(0.984196,-0.177085,1.57004e-16,0.977659,35.1086,351.845)"><text x="5415.18px" y="5128.53px" style="font-family:'VampiroOne-Regular', 'Vampiro One';font-size:277.14px;fill:#cb0000;stroke:#000;stroke-width:16.26px;">Blog</text>
	</g>

	<g transform="matrix(0.984196,-0.177085,1.57004e-16,0.977659,-4.49935,-50.5749)"><text x="2876.87px" y="6980.66px" style="font-family:'VampiroOne-Regular', 'Vampiro One';font-size:277.14px;fill:#cb0000;stroke:#000;stroke-width:16.26px;">Links</text>
	</g>

</svg>