<?xml version="1.0" encoding="UTF-8" standalone="no"?><!DOCTYPE svg PUBLIC "-//W3C//DTD SVG 1.1//EN" "http://www.w3.org/Graphics/SVG/1.1/DTD/svg11.dtd"><svg width="100%" height="100%" viewBox="0 0 2909 423" version="1.1" xmlns="http://www.w3.org/2000/svg" xmlns:xlink="http://www.w3.org/1999/xlink" xml:space="preserve" xmlns:serif="http://www.serif.com/" style="fill-rule:evenodd;clip-rule:evenodd;stroke-linejoin:round;stroke-miterlimit:2;"><g><g><path d="M64.183,0l-63.839,0c0,0 -5.993,26.92 32.043,64.087c38.036,37.166 31.323,58.444 32.044,64.086c0.721,5.643 0.858,38.726 -32.024,64.087c-32.882,25.361 -32.063,64.087 -32.063,64.087c0,-0 -5.501,28.303 32.063,64.086c37.564,35.784 31.866,64.087 31.866,64.087l64.087,0c-0,0 1.835,-37.492 -32.043,-64.087c-33.879,-26.595 -31.847,-64.086 -31.847,-64.086c0,-0 -7.868,-25.073 31.965,-64.087c39.832,-39.014 32.043,-64.51 32.043,-64.51c0,-0 2.964,-34.36 -32.043,-62.935c-35.008,-28.575 -32.252,-64.815 -32.252,-64.815Z" style="fill:#5bbfaf;"/><path d="M171.519,0l-63.839,0c-0,0 -5.993,26.92 32.043,64.087c38.036,37.166 31.322,58.444 32.044,64.086c0.721,5.643 0.858,38.726 -32.024,64.087c-32.882,25.361 -32.063,64.087 -32.063,64.087c-0,-0 -5.501,28.303 32.063,64.086c37.564,35.784 31.866,64.087 31.866,64.087l64.087,0c-0,0 1.835,-37.492 -32.044,-64.087c-33.878,-26.595 -31.846,-64.086 -31.846,-64.086c0,-0 -7.868,-25.073 31.965,-64.087c39.832,-39.014 32.043,-64.51 32.043,-64.51c-0,-0 2.964,-34.36 -32.043,-62.935c-35.008,-28.575 -32.252,-64.815 -32.252,-64.815Z" style="fill:#5bbfaf;"/><path d="M278.855,0l-63.839,0c-0,0 -5.993,26.92 32.043,64.087c38.036,37.166 31.322,58.444 32.044,64.086c0.721,5.643 0.858,38.726 -32.024,64.087c-32.882,25.361 -32.063,64.087 -32.063,64.087c-0,-0 -5.501,28.303 32.063,64.086c37.564,35.784 31.866,64.087 31.866,64.087l64.087,0c-0,0 1.834,-37.492 -32.044,-64.087c-33.878,-26.595 -31.846,-64.086 -31.846,-64.086c-0,-0 -7.868,-25.073 31.964,-64.087c39.833,-39.014 32.044,-64.51 32.044,-64.51c-0,-0 2.964,-34.36 -32.044,-62.935c-35.007,-28.575 -32.251,-64.815 -32.251,-64.815Z" style="fill:#5bbfaf;"/></g><text x="416.706px" y="314.353px" style="font-family:'SmoothCirculars', 'Smooth Circulars';font-size:246.093px;fill:#5bbfaf;">waves realty</text></g></svg>