<?xml version="1.0" encoding="UTF-8" standalone="no"?><!DOCTYPE svg PUBLIC "-//W3C//DTD SVG 1.1//EN" "http://www.w3.org/Graphics/SVG/1.1/DTD/svg11.dtd"><svg width="100%" height="100%" viewBox="0 0 1148 1093" version="1.1" xmlns="http://www.w3.org/2000/svg" xmlns:xlink="http://www.w3.org/1999/xlink" xml:space="preserve" xmlns:serif="http://www.serif.com/" style="fill-rule:evenodd;clip-rule:evenodd;stroke-linecap:round;stroke-linejoin:round;stroke-miterlimit:1.5;"><g><path d="M573.617,12.5l95.85,294.996l184.708,-91.158l-29.619,203.837l310.177,0l-250.939,182.318l143.775,147.498l-203.013,34.82l95.85,294.996l-250.939,-182.318l-95.85,182.318l-95.851,-182.318l-250.939,182.318l95.851,-294.996l-203.014,-34.82l143.775,-147.498l-250.939,-182.318l310.178,0l-29.62,-203.837l184.708,91.158l95.851,-294.996Z" style="fill:#f6e579;stroke:#000;stroke-width:25px;"/><path d="M645.686,800.067l-144.139,0l-0,-205.913l-133.844,-0l205.914,-205.914l205.913,205.914l-133.844,-0l0,205.913Z" style="fill:#81201b;stroke:#000;stroke-width:25px;"/></g></svg>