<?xml version="1.0" encoding="UTF-8" standalone="no"?><!DOCTYPE svg PUBLIC "-//W3C//DTD SVG 1.1//EN" "http://www.w3.org/Graphics/SVG/1.1/DTD/svg11.dtd"><svg width="100%" height="100%" viewBox="0 0 1671 1155" version="1.1" xmlns="http://www.w3.org/2000/svg" xmlns:xlink="http://www.w3.org/1999/xlink" xml:space="preserve" xmlns:serif="http://www.serif.com/" style="fill-rule:evenodd;clip-rule:evenodd;"><g><rect x="0" y="0" width="1670.83" height="1154.17" style="fill:#fff;"/><path d="M0,1154.17c0,-0 357.446,-154.079 589.363,-158.717c231.916,-4.637 352.27,120.525 556.112,88.783c203.842,-31.745 524.054,-211.62 524.054,-211.62l1.304,-872.613l-1670.83,0l0,1154.17Z" style="fill:#eff3fd;"/><clipPath id="_clip1"><path d="M0,1154.17c0,-0 357.446,-154.079 589.363,-158.717c231.916,-4.637 352.27,120.525 556.112,88.783c203.842,-31.745 524.054,-211.62 524.054,-211.62l1.304,-872.613l-1670.83,0l0,1154.17Z"/></clipPath><g clip-path="url(#_clip1)"><g><path d="M124.871,1597.16l1436.55,-2052.63" style="fill:none;fill-rule:nonzero;stroke:#becdf8;stroke-width:3.38px;"/><path d="M-351.853,414.789l1436.55,-2052.63" style="fill:none;fill-rule:nonzero;stroke:#becdf8;stroke-width:3.38px;"/><path d="M159.947,1688.29l1436.55,-2052.63" style="fill:none;fill-rule:nonzero;stroke:#becdf8;stroke-width:3.38px;"/><path d="M-316.776,505.91l1436.55,-2052.63" style="fill:none;fill-rule:nonzero;stroke:#becdf8;stroke-width:3.38px;"/><path d="M195.024,1779.41l1436.55,-2052.63" style="fill:none;fill-rule:nonzero;stroke:#becdf8;stroke-width:3.38px;"/><path d="M-281.699,597.043l1436.55,-2052.63" style="fill:none;fill-rule:nonzero;stroke:#becdf8;stroke-width:3.38px;"/><path d="M230.101,1870.54l1436.55,-2052.63" style="fill:none;fill-rule:nonzero;stroke:#becdf8;stroke-width:3.38px;"/><path d="M-246.623,688.168l1436.55,-2052.63" style="fill:none;fill-rule:nonzero;stroke:#becdf8;stroke-width:3.38px;"/><path d="M265.177,1961.66l1436.55,-2052.63" style="fill:none;fill-rule:nonzero;stroke:#becdf8;stroke-width:3.38px;"/><path d="M-211.546,779.293l1436.55,-2052.63" style="fill:none;fill-rule:nonzero;stroke:#becdf8;stroke-width:3.38px;"/><path d="M300.254,2052.79l1436.55,-2052.63" style="fill:none;fill-rule:nonzero;stroke:#becdf8;stroke-width:3.38px;"/><path d="M-176.469,870.422l1436.55,-2052.63" style="fill:none;fill-rule:nonzero;stroke:#becdf8;stroke-width:3.38px;"/><path d="M335.331,2143.92l1436.55,-2052.63" style="fill:none;fill-rule:nonzero;stroke:#becdf8;stroke-width:3.38px;"/><path d="M-141.392,961.551l1436.55,-2052.63" style="fill:none;fill-rule:nonzero;stroke:#becdf8;stroke-width:3.38px;"/><path d="M370.408,2235.04l1436.55,-2052.63" style="fill:none;fill-rule:nonzero;stroke:#becdf8;stroke-width:3.38px;"/><path d="M-106.317,1052.68l1436.55,-2052.63" style="fill:none;fill-rule:nonzero;stroke:#becdf8;stroke-width:3.38px;"/><path d="M405.483,2326.17l1436.55,-2052.63" style="fill:none;fill-rule:nonzero;stroke:#becdf8;stroke-width:3.38px;"/><path d="M-71.24,1143.8l1436.55,-2052.63" style="fill:none;fill-rule:nonzero;stroke:#becdf8;stroke-width:3.38px;"/><path d="M440.56,2417.3l1436.55,-2052.63" style="fill:none;fill-rule:nonzero;stroke:#becdf8;stroke-width:3.38px;"/><path d="M-36.163,1234.93l1436.55,-2052.63" style="fill:none;fill-rule:nonzero;stroke:#becdf8;stroke-width:3.38px;"/><path d="M475.639,2508.43l1436.55,-2052.63" style="fill:none;fill-rule:nonzero;stroke:#becdf8;stroke-width:3.38px;"/><path d="M510.714,2599.55l1436.55,-2052.63" style="fill:none;fill-rule:nonzero;stroke:#becdf8;stroke-width:3.38px;"/><path d="M0.508,1332.89l1436.55,-2052.63" style="fill:none;fill-rule:nonzero;stroke:#becdf8;stroke-width:3.38px;"/><path d="M545.793,2690.68l1436.55,-2052.63" style="fill:none;fill-rule:nonzero;stroke:#becdf8;stroke-width:3.38px;"/><path d="M35.584,1424.02l1436.55,-2052.63" style="fill:none;fill-rule:nonzero;stroke:#becdf8;stroke-width:3.38px;"/><path d="M580.868,2781.81l1436.55,-2052.63" style="fill:none;fill-rule:nonzero;stroke:#becdf8;stroke-width:3.38px;"/><path d="M70.661,1515.15l1436.55,-2052.63" style="fill:none;fill-rule:nonzero;stroke:#becdf8;stroke-width:3.38px;"/></g></g></g></svg>