
<svg width="" height="" viewBox="0 0 401 192" version="1.1" xmlns="http://www.w3.org/2000/svg" xmlns:xlink="http://www.w3.org/1999/xlink" xml:space="preserve" xmlns:serif="http://www.serif.com/" style="fill-rule:evenodd;clip-rule:evenodd;stroke-linecap:round;stroke-linejoin:round;stroke-miterlimit:1.5;">


	<g id="Shape">

		<path class='windmill'

			d="M26.9,7.287c-0.05,-0.307 -0.074,-0.617 -0.074,-0.928c-0,-3.234 2.625,-5.859 5.859,-5.859c3.233,0 5.859,2.625 5.859,5.859c-0,0.311 -0.025,0.621 -0.074,0.928l-2.715,16.925c-0.254,1.584 0.496,3.16 1.885,3.962c1.389,0.802 3.129,0.663 4.373,-0.348l13.301,-10.814c0.241,-0.196 0.497,-0.373 0.766,-0.528c2.801,-1.617 6.387,-0.656 8.004,2.144c1.617,2.801 0.656,6.387 -2.145,8.004c-0.269,0.155 -0.55,0.289 -0.84,0.4l-16.016,6.111c-1.498,0.572 -2.488,2.01 -2.488,3.614c-0,1.603 0.99,3.041 2.488,3.613l16.016,6.111c0.29,0.111 0.571,0.245 0.84,0.4c2.801,1.617 3.762,5.203 2.145,8.004c-1.617,2.8 -5.203,3.761 -8.004,2.144c-0.269,-0.155 -0.525,-0.332 -0.766,-0.528l-13.301,-10.814c-1.244,-1.011 -2.984,-1.15 -4.373,-0.348c-1.389,0.802 -2.139,2.378 -1.885,3.962l2.715,16.925c0.049,0.307 0.074,0.617 0.074,0.928c-0,3.234 -2.626,5.859 -5.859,5.859c-3.234,0 -5.859,-2.625 -5.859,-5.859c-0,-0.311 0.024,-0.621 0.074,-0.928l2.715,-16.925c0.254,-1.584 -0.496,-3.16 -1.885,-3.962c-1.389,-0.802 -3.129,-0.663 -4.374,0.348l-13.3,10.814c-0.241,0.196 -0.498,0.373 -0.767,0.528c-2.8,1.617 -6.386,0.656 -8.003,-2.144c-1.617,-2.801 -0.656,-6.387 2.144,-8.004c0.269,-0.155 0.55,-0.289 0.841,-0.4l16.015,-6.111c1.499,-0.572 2.489,-2.01 2.489,-3.613c-0,-1.604 -0.99,-3.042 -2.489,-3.614l-16.015,-6.111c-0.291,-0.111 -0.572,-0.245 -0.841,-0.4c-2.8,-1.617 -3.761,-5.203 -2.144,-8.004c1.617,-2.8 5.203,-3.761 8.003,-2.144c0.269,0.155 0.526,0.332 0.767,0.528l13.3,10.814c1.245,1.011 2.985,1.15 4.374,0.348c1.389,-0.802 2.139,-2.378 1.885,-3.962l-2.715,-16.925Z"/>

		<path class='curve'

			d="M32.685,103.678c-0,-0 120.114,145.655 365.862,57.238"/>

	</g>

</svg>