<?xml version="1.0" encoding="UTF-8" standalone="no"?>
<!-- Created with Inkscape (http://www.inkscape.org/) -->

<svg
   xmlns:dc="http://purl.org/dc/elements/1.1/"
   xmlns:cc="http://creativecommons.org/ns#"
   xmlns:rdf="http://www.w3.org/1999/02/22-rdf-syntax-ns#"
   xmlns:svg="http://www.w3.org/2000/svg"
   xmlns="http://www.w3.org/2000/svg"
   xmlns:inkscape="http://www.inkscape.org/namespaces/inkscape"
   version="1.1"
   width="600"
   height="600"
   id="svg2">
  <defs
     id="defs11" />
  <metadata
     id="metadata7">
    <rdf:RDF>
      <cc:Work
         rdf:about="">
        <dc:format>image/svg+xml</dc:format>
        <dc:type
           rdf:resource="http://purl.org/dc/dcmitype/StillImage" />
        <dc:title />
      </cc:Work>
    </rdf:RDF>
  </metadata>
  <g
     transform="translate(0,-452.36)"
     id="layer1">
    <rect
       width="600"
       height="600"
       rx="37.5"
       ry="37.5"
       x="0"
       y="452.35999"
       id="rect7" />
    <path
       d="M 91.656,464.87 C 47.624,465.98 12.5,501.81 12.5,546.12 V 684.88 C 12.63,859.26 135.88,1005.1 300,1039.6 464.22,1005 587.5,859.37 587.5,684.88 V 546.12 c 0,-45.012 -36.238,-81.25 -81.25,-81.25 H 93.75 c -0.70332,0 -1.3948,-0.0176 -2.0938,0 z"
       inkscape:connector-curvature="0"
       id="path9"
       style="fill:#ffffff" />
    <g
       id="routenum">
      <path
         d="m 401.29,600.58 c -2.6788,3.274 -5.2086,6.2502 -7.5893,8.9286 l -6.25,8.0357 c -1.7859,2.6788 -3.7204,5.5062 -5.8036,8.4821 -2.0835,2.9764 -4.3157,6.399 -6.6964,10.268 -13.393,22.024 -24.851,45.238 -34.375,69.643 -9.2264,24.405 -16.369,48.661 -21.429,72.768 -0.89299,6.2501 -1.7858,12.351 -2.6786,18.304 -0.89299,5.6548 -1.637,11.458 -2.2321,17.411 -0.29775,5.6548 -0.59537,11.607 -0.89286,17.857 -0.29775,5.9524 -0.44656,12.649 -0.44643,20.089 h -48.214 c 0.29753,-17.262 1.3392,-33.929 3.125,-50 1.7856,-16.071 4.3154,-31.845 7.5893,-47.321 3.5713,-15.476 8.0356,-30.803 13.393,-45.982 5.357,-15.476 11.756,-31.101 19.196,-46.875 5.0594,-11.309 10.565,-22.321 16.518,-33.036 5.9522,-10.714 11.607,-20.238 16.964,-28.571 h -142.86 v -47.321 h 202.68 v 47.321"
         inkscape:connector-curvature="0"
         id="path2990" />
    </g>
  </g>
</svg>
