<?xml version="1.0" encoding="UTF-8" standalone="no"?>
<!-- Created with Inkscape (http://www.inkscape.org/) -->

<svg
   xmlns:dc="http://purl.org/dc/elements/1.1/"
   xmlns:cc="http://creativecommons.org/ns#"
   xmlns:rdf="http://www.w3.org/1999/02/22-rdf-syntax-ns#"
   xmlns:svg="http://www.w3.org/2000/svg"
   xmlns="http://www.w3.org/2000/svg"
   xmlns:inkscape="http://www.inkscape.org/namespaces/inkscape"
   version="1.1"
   width="750"
   height="600"
   id="svg2">
  <defs
     id="defs12" />
  <metadata
     id="metadata7">
    <rdf:RDF>
      <cc:Work
         rdf:about="">
        <dc:format>image/svg+xml</dc:format>
        <dc:type
           rdf:resource="http://purl.org/dc/dcmitype/StillImage" />
        <dc:title />
      </cc:Work>
    </rdf:RDF>
  </metadata>
  <rect
     width="750"
     height="600"
     rx="37.5"
     ry="37.5"
     x="0"
     y="0"
     id="rect6" />
  <path
     d="M 93.75,12.5 C 48.737,12.5 12.501,48.738 12.5,93.75 v 84.188 c -0.0012,0.55196 0,1.1043 0,1.6562 0,210.89 158.26,382.96 362.5,407.64 204.24,-24.678 362.5,-198.4 362.5,-409.3 v -84.188 c 0,-45.014 -36.24,-81.252 -81.25,-81.252 z"
     inkscape:connector-curvature="0"
     id="path8"
     style="fill:#ffffff" />
  <g
     id="routenum">
    <path
       d="m 254.06,319.2 c -1.9e-4,12.202 -2.0835,23.661 -6.25,34.375 -4.1668,10.417 -9.9704,19.494 -17.411,27.232 -7.143,7.7381 -15.923,13.839 -26.339,18.304 -10.119,4.1667 -21.131,6.25 -33.036,6.25 -12.202,0 -23.363,-2.0833 -33.482,-6.25 -9.8215,-4.1667 -18.452,-9.9702 -25.893,-17.411 -7.1429,-7.4404 -12.946,-16.22 -17.411,-26.339 -4.1667,-10.417 -6.5476,-21.726 -7.1429,-33.929 h 41.964 c 1.1904,12.202 5.5059,22.321 12.946,30.357 7.738,7.7381 17.411,11.607 29.018,11.607 12.202,3e-5 22.172,-4.1666 29.911,-12.5 8.0356,-8.6309 12.053,-19.196 12.054,-31.696 -1.4e-4,-8.0356 -1.0418,-15.476 -3.125,-22.321 -2.0835,-7.1427 -4.9108,-13.244 -8.4821,-18.304 -3.5716,-5.357 -7.7382,-9.5237 -12.5,-12.5 -4.4644,-2.976 -9.3751,-4.4641 -14.732,-4.4643 h -20.982 v -41.071 h 17.857 c 5.357,1.8e-4 9.3749,-0.89268 12.054,-2.6786 2.9761,-1.7855 6.2499,-4.7617 9.8214,-8.9286 8.6308,-9.5236 12.946,-20.684 12.946,-33.482 -1.3e-4,-11.607 -3.2739,-20.833 -9.8214,-27.679 -6.2501,-6.845 -14.583,-10.268 -25,-10.268 -9.5239,2.6e-4 -17.113,2.8276 -22.768,8.4821 -5.3572,5.3574 -8.631,13.095 -9.8214,23.214 l -41.964,-5.3572 c 1.1904,-9.8212 3.869,-18.899 8.0357,-27.232 4.1666,-8.6307 9.5238,-15.922 16.071,-21.875 6.5476,-5.9521 14.137,-10.565 22.768,-13.839 8.6309,-3.5711 17.857,-5.3568 27.679,-5.3571 10.714,3.05e-4 20.684,1.9348 29.911,5.8036 9.226,3.8694 17.113,9.3753 23.661,16.518 6.8451,6.8455 12.202,15.03 16.071,24.554 3.8689,9.2264 5.8034,19.197 5.8036,29.911 -1.8e-4,12.5 -2.0835,24.107 -6.25,34.821 -3.8692,10.714 -10.863,21.875 -20.982,33.482 11.607,10.417 20.238,22.322 25.893,35.714 5.9522,13.393 8.9284,27.679 8.9286,42.857"
       inkscape:connector-curvature="0"
       id="path2989" />
    <path
       d="m 458.05,319.2 c -1.8e-4,12.202 -2.0835,23.661 -6.25,34.375 -4.1668,10.417 -9.9704,19.494 -17.411,27.232 -7.143,7.7381 -15.923,13.839 -26.339,18.304 -10.119,4.1667 -21.131,6.25 -33.036,6.25 -12.202,0 -23.363,-2.0833 -33.482,-6.25 -9.8215,-4.1667 -18.452,-9.9702 -25.893,-17.411 -7.1429,-7.4404 -12.946,-16.22 -17.411,-26.339 -4.1667,-10.417 -6.5476,-21.726 -7.1429,-33.929 h 41.964 c 1.1904,12.202 5.5059,22.321 12.946,30.357 7.738,7.7381 17.411,11.607 29.018,11.607 12.202,3e-5 22.172,-4.1666 29.911,-12.5 8.0356,-8.6309 12.053,-19.196 12.054,-31.696 -1.5e-4,-8.0356 -1.0418,-15.476 -3.125,-22.321 -2.0835,-7.1427 -4.9108,-13.244 -8.4822,-18.304 -3.5716,-5.357 -7.7382,-9.5237 -12.5,-12.5 -4.4644,-2.976 -9.3751,-4.4641 -14.732,-4.4643 h -20.982 v -41.071 h 17.857 c 5.357,1.8e-4 9.3749,-0.89268 12.054,-2.6786 2.9761,-1.7855 6.2499,-4.7617 9.8214,-8.9286 8.6308,-9.5236 12.946,-20.684 12.946,-33.482 -1.4e-4,-11.607 -3.2739,-20.833 -9.8214,-27.679 -6.2501,-6.845 -14.583,-10.268 -25,-10.268 -9.5239,2.6e-4 -17.113,2.8276 -22.768,8.4821 -5.3572,5.3574 -8.631,13.095 -9.8214,23.214 l -41.964,-5.3572 c 1.1904,-9.8212 3.869,-18.899 8.0357,-27.232 4.1666,-8.6307 9.5238,-15.922 16.071,-21.875 6.5476,-5.9521 14.137,-10.565 22.768,-13.839 8.6309,-3.5711 17.857,-5.3568 27.679,-5.3571 10.714,3.05e-4 20.684,1.9348 29.911,5.8036 9.226,3.8694 17.113,9.3753 23.661,16.518 6.8451,6.8455 12.202,15.03 16.071,24.554 3.8689,9.2264 5.8034,19.197 5.8036,29.911 -1.8e-4,12.5 -2.0835,24.107 -6.25,34.821 -3.8692,10.714 -10.863,21.875 -20.982,33.482 11.607,10.417 20.238,22.322 25.893,35.714 5.9522,13.393 8.9284,27.679 8.9286,42.857"
       inkscape:connector-curvature="0"
       id="path2991" />
    <path
       d="m 653.55,142.86 c -13.393,15.179 -25.298,32.441 -35.714,51.786 -10.417,19.048 -19.792,40.625 -28.125,64.732 -8.0358,22.917 -13.839,45.387 -17.411,67.411 -3.5715,21.726 -5.9525,46.131 -7.1428,73.214 h -41.964 v -6.25 c -4e-5,-7.4405 0.44638,-16.071 1.3393,-25.893 0.89281,-9.8214 2.0833,-19.94 3.5714,-30.357 1.7857,-10.714 3.7202,-21.428 5.8036,-32.143 2.0833,-11.012 4.4642,-21.428 7.1428,-31.25 3.2738,-11.905 6.6964,-23.214 10.268,-33.929 3.869,-11.012 8.0356,-21.726 12.5,-32.143 4.7618,-10.416 9.9701,-20.833 15.625,-31.25 5.6546,-10.714 12.202,-22.024 19.643,-33.929 h -112.5 v -41.964 h 166.96 v 41.964"
       inkscape:connector-curvature="0"
       id="path2993" />
  </g>
</svg>
