<?xml version="1.0" encoding="UTF-8" standalone="no"?>
<!-- Created with Inkscape (http://www.inkscape.org/) -->

<svg
   xmlns:dc="http://purl.org/dc/elements/1.1/"
   xmlns:cc="http://creativecommons.org/ns#"
   xmlns:rdf="http://www.w3.org/1999/02/22-rdf-syntax-ns#"
   xmlns:svg="http://www.w3.org/2000/svg"
   xmlns="http://www.w3.org/2000/svg"
   xmlns:inkscape="http://www.inkscape.org/namespaces/inkscape"
   version="1.1"
   width="750"
   height="600"
   id="svg2">
  <defs
     id="defs12" />
  <metadata
     id="metadata7">
    <rdf:RDF>
      <cc:Work
         rdf:about="">
        <dc:format>image/svg+xml</dc:format>
        <dc:type
           rdf:resource="http://purl.org/dc/dcmitype/StillImage" />
        <dc:title />
      </cc:Work>
    </rdf:RDF>
  </metadata>
  <rect
     width="750"
     height="600"
     rx="37.5"
     ry="37.5"
     x="0"
     y="0"
     id="rect6" />
  <path
     d="M 93.75,12.5 C 48.737,12.5 12.501,48.738 12.5,93.75 v 84.188 c -0.0012,0.55196 0,1.1043 0,1.6562 0,210.89 158.26,382.96 362.5,407.64 204.24,-24.678 362.5,-198.4 362.5,-409.3 v -84.188 c 0,-45.014 -36.24,-81.252 -81.25,-81.252 z"
     inkscape:connector-curvature="0"
     id="path8"
     style="fill:#ffffff" />
  <g
     id="routenum">
    <path
       d="m 73.584,400 c 0.59522,-10.119 1.1905,-18.899 1.7857,-26.339 0.89284,-7.4404 1.7857,-14.137 2.6786,-20.089 1.1905,-5.9523 2.5297,-11.607 4.0179,-16.964 1.7857,-5.6547 3.869,-11.756 6.25,-18.304 12.202,-31.25 28.274,-56.101 48.214,-74.554 1.7856,-1.4879 3.5713,-2.976 5.3571,-4.4643 2.0832,-1.7856 4.4642,-3.7201 7.1429,-5.8036 2.9761,-2.0832 6.3987,-4.6129 10.268,-7.5893 4.1666,-2.976 9.2261,-6.5474 15.179,-10.714 9.8213,-6.845 16.369,-12.649 19.643,-17.411 3.5713,-4.7617 5.357,-10.863 5.3571,-18.304 -1.4e-4,-5.6545 -1.1906,-11.012 -3.5714,-16.071 -2.0835,-5.0593 -5.0597,-9.5236 -8.9286,-13.393 -3.5716,-3.8688 -8.0358,-6.845 -13.393,-8.9286 -5.0596,-2.3807 -10.417,-3.5712 -16.071,-3.5714 -5.9525,2.6e-4 -11.458,1.1907 -16.518,3.5714 -5.0596,2.0836 -9.5239,5.0598 -13.393,8.9286 -3.5715,3.8693 -6.5477,8.3336 -8.9286,13.393 -2.0834,5.0598 -3.1251,10.417 -3.125,16.071 h -41.964 c 0.2976,-11.607 2.5297,-22.47 6.6964,-32.589 4.4643,-10.416 10.417,-19.345 17.857,-26.786 7.4404,-7.7378 16.22,-13.69 26.339,-17.857 10.119,-4.464 21.131,-6.6961 33.036,-6.6964 11.607,3.05e-4 22.321,2.2324 32.143,6.6964 10.119,4.4646 18.899,10.566 26.339,18.304 7.7379,7.4408 13.69,16.22 17.857,26.339 4.4641,10.119 6.6962,20.982 6.6964,32.589 -1.9e-4,23.81 -8.4823,43.453 -25.446,58.929 -1.4882,1.1906 -3.1252,2.3811 -4.9107,3.5714 -1.4882,0.89301 -2.9763,2.0835 -4.4643,3.5714 l -10.268,7.5893 -10.714,7.1429 -11.607,8.4821 c -4.762,3.5716 -9.5239,7.887 -14.286,12.946 -4.4644,4.762 -8.9287,10.119 -13.393,16.071 -4.1668,5.6549 -7.887,11.756 -11.161,18.304 -3.2739,6.2501 -5.9524,12.5 -8.0357,18.75 -1.7858,3.8691 -3.1251,7.4405 -4.0179,10.714 -0.5953,2.9762 -1.4882,7.1429 -2.6786,12.5 h 120.98 v 41.964 h -166.96"
       inkscape:connector-curvature="0"
       id="path2989" />
    <path
       d="m 462.39,250 c -2e-4,22.917 -1.3395,42.411 -4.0179,58.482 -2.3812,16.072 -6.6966,31.25 -12.946,45.536 -7.4406,17.857 -16.816,30.952 -28.125,39.286 -11.012,8.0357 -25,12.054 -41.964,12.054 -17.857,0 -32.441,-4.0179 -43.75,-12.054 -11.012,-8.3333 -20.238,-21.429 -27.679,-39.286 -6.25,-14.583 -10.714,-29.762 -13.393,-45.536 -2.381,-16.071 -3.5715,-35.565 -3.5714,-58.482 -3e-5,-22.619 1.1904,-41.964 3.5714,-58.036 2.6785,-16.369 7.1428,-31.696 13.393,-45.982 7.738,-17.857 17.113,-30.654 28.125,-38.393 11.309,-8.0354 25.744,-12.053 43.304,-12.054 17.262,3.05e-4 31.399,4.0182 42.411,12.054 11.012,7.7384 20.238,20.834 27.679,39.286 2.976,7.4407 5.5058,14.881 7.5893,22.321 2.3808,7.4407 4.1665,15.328 5.3571,23.661 1.4879,8.0359 2.5296,16.816 3.125,26.339 0.59504,9.2264 0.89266,19.494 0.89286,30.804 m -41.071,0 c -1.6e-4,-8.3332 -0.29778,-15.922 -0.89285,-22.768 -0.29778,-6.8451 -0.89302,-13.095 -1.7857,-18.75 -0.5954,-5.9522 -1.4882,-11.607 -2.6786,-16.964 -1.1906,-5.3569 -2.5299,-10.714 -4.0179,-16.071 -3.8692,-13.393 -8.7799,-23.065 -14.732,-29.018 -5.6549,-5.9521 -12.947,-8.9283 -21.875,-8.9286 -18.452,2.6e-4 -31.101,12.351 -37.946,37.054 -3.5715,11.31 -6.1013,22.768 -7.5893,34.375 -1.1906,11.31 -1.7858,25.298 -1.7857,41.964 -6e-5,8.0359 0.14874,15.476 0.44643,22.321 0.59517,6.5477 1.1904,12.798 1.7857,18.75 0.89278,5.6549 1.9344,11.31 3.125,16.964 1.1904,5.6548 2.5297,11.458 4.0178,17.411 6.8452,24.702 19.494,37.054 37.946,37.054 8.9284,3e-5 16.22,-2.9762 21.875,-8.9286 5.9522,-5.9523 10.863,-15.327 14.732,-28.125 1.7856,-5.9523 3.2737,-11.607 4.4643,-16.964 1.1903,-5.6547 2.0832,-11.458 2.6786,-17.411 0.8927,-5.9523 1.4879,-12.202 1.7857,-18.75 0.29746,-6.8451 0.44627,-14.583 0.44643,-23.214"
       inkscape:connector-curvature="0"
       id="path2991" />
    <path
       d="m 676.42,312.05 c -1.8e-4,14.286 -2.5299,27.976 -7.5893,41.071 -5.0597,12.798 -12.054,23.512 -20.982,32.143 -13.095,13.393 -31.25,20.089 -54.464,20.089 -14.881,0 -27.679,-2.6786 -38.393,-8.0357 -10.417,-5.3571 -19.345,-13.244 -26.786,-23.661 -5.9524,-8.3333 -10.566,-17.857 -13.839,-28.571 -3.2738,-10.714 -4.9107,-21.726 -4.9107,-33.036 -2e-5,-14.881 2.2321,-28.571 6.6964,-41.071 4.7619,-12.797 11.905,-23.958 21.429,-33.482 -16.071,-17.559 -24.107,-38.244 -24.107,-62.054 -3e-5,-11.607 1.9345,-22.321 5.8036,-32.143 3.869,-9.8212 9.2262,-18.154 16.071,-25 7.1428,-7.1426 15.625,-12.649 25.446,-16.518 9.8214,-4.1664 20.684,-6.2497 32.589,-6.25 11.607,3.05e-4 22.172,2.0836 31.696,6.25 9.5237,3.8693 17.708,9.3753 24.554,16.518 7.1427,6.8455 12.649,15.179 16.518,25 3.8689,9.8217 5.8034,20.536 5.8036,32.143 -1.8e-4,12.203 -2.0835,23.661 -6.25,34.375 -3.8692,10.417 -9.8216,19.643 -17.857,27.679 9.5236,8.9287 16.666,19.941 21.429,33.036 4.7617,12.798 7.1427,26.637 7.1429,41.518 m -46.43,-136.59 c -1.4e-4,-11.012 -3.5716,-20.089 -10.714,-27.232 -6.8454,-7.1426 -15.476,-10.714 -25.893,-10.714 -11.012,2.6e-4 -20.089,3.5717 -27.232,10.714 -7.1429,7.1431 -10.714,16.22 -10.714,27.232 -6e-5,12.203 3.5714,21.875 10.714,29.018 7.1428,7.143 16.22,10.714 27.232,10.714 10.417,1.8e-4 19.048,-3.5712 25.893,-10.714 7.1427,-7.1426 10.714,-16.815 10.714,-29.018 m 5.3571,136.61 c -1.4e-4,-16.369 -3.8692,-29.315 -11.607,-38.839 -7.7382,-9.8213 -17.857,-14.732 -30.357,-14.732 -12.5,1.4e-4 -22.619,4.9108 -30.357,14.732 -7.7382,9.5239 -11.607,22.47 -11.607,38.839 -6e-5,15.179 3.869,27.53 11.607,37.054 7.738,9.5238 17.857,14.286 30.357,14.286 12.5,3e-5 22.619,-4.7619 30.357,-14.286 7.738,-9.5237 11.607,-21.875 11.607,-37.054"
       inkscape:connector-curvature="0"
       id="path2993" />
  </g>
</svg>
